<?xml version="1.0" encoding="utf-8"?>
<!-- Generator: Adobe Illustrator 25.0.0, SVG Export Plug-In . SVG Version: 6.00 Build 0)  -->
<svg version="1.1" id="katman_1" xmlns="http://www.w3.org/2000/svg" xmlns:xlink="http://www.w3.org/1999/xlink" x="0px" y="0px"
	 width="1000px" height="670px" viewBox="0 0 1000 670" style="enable-background:new 0 0 1000 670;" xml:space="preserve">
<g id="Mwo17y_1_">
	<g>
		<path d="M783.2,381.3c4.8,8.1,9.8,15.9,13.9,24c14,27.5,19.2,56.5,14.2,87.2c-7,42.3-28.4,76.2-61.4,102.8
			c-20.7,16.7-44.2,27.8-70.7,31.9c-31.7,4.8-61-1.3-88.1-18.7c-16.9-10.9-30.8-24.9-42.8-41c-17.7-23.9-30-50.5-39.6-78.4
			c-0.6-1.5-1-3.1-2.3-4.5c0.3,5.7,0.9,11.5,1,17.3c0.2,19.4,1,38.8,0.2,58.1c-0.3,8.3-3.3,16.7-6,24.8c-1.2,3.7-4.4,6.9-7.2,10
			c-3.1,3.4-4.8,3.1-8.1-0.1c-4.8-4.4-7.7-9.9-9.4-16c-4-13.5-4.7-27.3-4.4-41.1c0.4-15,1.3-29.9,1.9-44.9c0.1-2.4,0-4.9,0-8.5
			c-2.7,7.5-5.1,14.1-7.7,20.6c-9.8,25.3-22.3,49.3-39.7,70.3c-20.2,24.5-44.6,43-76,50.5c-35.3,8.4-68.5,1.7-99.6-16
			c-27.7-15.8-49.3-38.1-64.6-66c-13.6-24.9-20.5-51.6-19-80.1c1.5-26.9,10.2-51.4,24.9-73.8c1.5-2.2,3-4.4,4.4-6.6
			c0.2-0.3,0.3-0.6,0.4-1c-5.2-1.4-10.5-2.3-15.5-4.1c-15.4-5.5-26.7-16.3-36.2-29.1c-14.2-19.1-23.1-40.9-30.2-63.4
			c-6.4-20.3-11-41-14-62.1c-1.1-7.8-2.2-15.7-2.8-23.5c-0.3-3.7-2.1-6.2-4.4-8.8c-13.9-15.9-26.7-32.5-36-51.5
			c-5.8-11.9-10.2-24.1-10.2-37.5c0-18.6,9.7-33.1,26.8-40.6c14.4-6.2,29.7-7.9,45.1-7.3c35.4,1.3,68.5,11.6,100.6,25.6
			c34.4,15.1,66.2,34.5,96,57.2c20.1,15.2,38.9,31.9,56.8,49.6c18.4,18.2,35.9,37.1,51.3,57.8c15.5,20.7,29.7,42.5,44.4,63.8
			c0.4,0.6,0.8,1.2,1.5,2.3c1.3-4.2,3.2-7.3-0.1-11.4c-3.1-4-1.9-8.7,1.6-12.7c0.7-0.8,1-2.7,0.6-3.7
			c-10.6-25.1-22.7-49.4-37.7-72.2c-9.6-14.6-20.5-28.3-30.8-42.4c-0.4-0.5-0.8-1-1.2-1.5c-1.8-2.1-3.6-4.2-1-6.9
			c1.9-1.9,5.3-1.3,7.5,1.7c7.4,10,15,19.9,21.9,30.2c18.6,28.1,32.7,58.5,44.6,90.1c0.2,0.5,0.4,0.9,0.2,0.5
			c4.6,0.8,8.5,1.6,12.6,2.3c0.9,0.2,1.9,0,2.8-0.2c3.8-0.6,7.5-1.2,12.3-2c1-2.7,2.7-6.4,4.1-10.2c9.9-25.9,21.9-50.9,36.9-74.3
			c8-12.5,17.2-24.2,25.8-36.3c0.5-0.7,1.2-1.6,1.9-1.8c1.8-0.2,3.7-0.1,5.6-0.1c0,1.8,0.7,4.2-0.1,5.3c-4.6,6.3-9.8,12.2-14.4,18.4
			c-17.8,23.5-32.7,48.9-45.4,75.6c-3.7,7.7-7,15.6-10.6,23.4c-0.8,1.7-0.9,2.7,0.6,4.2c3.5,3.5,4.6,8.3,1.8,12
			c-3.1,4-1.9,7.4-0.2,11.7c4.7-7.3,9-14.2,13.5-21.1c19-28.8,39.9-55.9,63.1-81.3c22-24.1,45.8-46.4,71.5-66.4
			c27.3-21.3,56.2-39.9,87.3-55c27.5-13.3,55.9-24,86.1-29.2c21.9-3.8,43.8-5.3,65.5,1c14.8,4.4,27,12.3,32.8,27.6
			c4.2,11.2,3.2,22.6,0.1,33.8c-5.7,20.3-16.9,37.7-29.7,54.3c-5.1,6.6-10.6,12.7-15.8,19.2c-1.2,1.5-2.2,3.7-2.3,5.6
			c-3.1,32.7-9.3,64.7-20,95.7c-7.3,21.2-16.6,41.6-31.1,59.1c-12.3,14.8-27,25.5-46.7,27.8C784,381,783.7,381.2,783.2,381.3z
			 M536.2,348.9c1.5,0.3,1.9,0.5,2.3,0.5c43.8,3.4,87.6,7.2,131.6,8c36,0.6,72,0.3,107.6-6.4c11.3-2.1,21.6-6.5,29.9-14.8
			c11-11,8.1-25.1-6.7-29.8c-6.4-2.1-13.2-3.1-19.9-3.2c-19.1-0.5-38.2,0.1-57.3-0.4c-16.3-0.4-32.3-3.5-48-7.8
			c-11.3-3.1-22.3-3.1-33.5-0.2c-15.6,4-29.7,11.6-43.5,19.6c-16.8,9.7-33.5,19.4-50.4,29C544.5,345.2,540.7,346.7,536.2,348.9z
			 M443.4,349.2c0.1-0.2,0.2-0.5,0.2-0.7c-0.8-0.5-1.7-0.9-2.5-1.4c-11.6-6.2-23.4-12.2-34.8-18.7c-17.7-10.1-34.6-21.5-53.5-29.3
			c-15.9-6.5-31.9-9-48.9-4c-9.8,2.9-20.1,4.5-30.3,6c-23.5,3.3-47.2,3.1-70.9,1.9c-8.8-0.4-17.3,0.6-25.4,4.4
			c-10,4.6-13.1,14.5-7.3,23.9c4.5,7.4,11.5,11.9,19.1,15.4c10.6,4.9,22,6.1,33.3,7.5c28.3,3.4,56.8,4.4,85.2,3.3
			c35.5-1.5,70.9-3.6,106.4-5.6C423.7,351,433.6,350.1,443.4,349.2z M671.2,579.2c0.3-0.1,0.6-0.2,1-0.3c-2.3-7.3-3.9-14.8-6.9-21.8
			c-10.4-23-21.6-45.7-36-66.5c-7.5-10.8-15.7-21.2-24.4-31c-13.2-15.2-29.2-27.3-46.2-37.9c-7.6-4.8-15.5-8.9-23.3-13.1
			c-0.9-0.5-2.1-0.3-3.1-0.4c0,1.2-0.4,2.5,0.1,3.5c1.4,2.9,2.8,6,4.8,8.5c11.7,15.9,24,31.4,35.3,47.6c15.8,22.8,31,46.1,46.2,69.4
			c8.1,12.4,15.6,25.2,24,37.5c4.1,6.2,9.4,11.5,16.5,14.7c6.7,3.1,11.8,0.1,12.4-7.3C671.2,581,671.2,580.1,671.2,579.2z
			 M309.7,575.7c-0.2,13.9,5.2,17.3,14.1,12.5c7.8-4.2,13.2-10.9,17.8-18.1c13.7-21.2,26.6-43,40.8-63.9
			c16.8-24.8,34.5-48.9,51.8-73.4c4.7-6.7,9.4-13.4,13.9-20.2c0.8-1.2,0.6-3,0.9-4.5c-1.5,0.2-3.2,0.1-4.5,0.7
			c-8.5,4.8-17.2,9.5-25.4,14.8c-26,16.5-47.6,37.4-64.9,62.7c-15.3,22.5-27.7,46.7-38.9,71.4C312.2,564.6,310.8,572,309.7,575.7z
			 M443.5,385.1c-0.3-0.1-0.7-0.2-1-0.2c-17.9,0.6-35.7,0.8-53.6,1.7c-22.3,1.1-40.2,10.1-51.2,30.6c-0.6,1.1-2.2,1.9-3.5,2.5
			c-7.7,3.4-15.6,6.3-23.1,10c-15.2,7.3-22.1,20.6-24.6,36.6c-0.3,2.1,0.5,5.5,1.9,6.3c1.7,1,4.8,0.2,6.9-0.7
			c3.9-1.5,7.4-3.6,11.2-5.4c16-7.6,32.8-13.1,50.2-16.9c4.2-0.9,8.9-0.6,12.5-4.4c6.4-6.4,13.1-12.4,20.2-18.2
			c14.8-12.3,30.4-23.5,47.9-31.9C441.3,393.2,444.4,390.5,443.5,385.1z M537.2,384.8c0.2,4.7,1.4,8,5.9,9.8c3.8,1.5,7.3,3.9,10.9,6
			c21.4,12.6,40.6,28,58.4,45.1c1.5,1.5,3.8,2.3,5.9,2.7c23.5,4.4,45.8,12.4,67.1,23.3c2.1,1,5.6,1.9,7.2,0.9c1.6-1.1,2.5-4.8,2.1-7
			c-2.8-15.7-9.9-28.8-25-36c-7.6-3.6-15.5-6.6-23.1-10c-1.5-0.6-2.9-1.9-3.7-3.3c-6-9.7-13.1-18.1-23.6-23.1
			c-9.1-4.4-18.9-6.2-28.9-6.6c-13.5-0.6-26.9-0.6-40.4-1C545.6,385.4,541.5,385.1,537.2,384.8z M530.2,342.3
			c1.5-0.7,2.7-1.1,3.7-1.8c30.6-17.5,61.3-34.7,91.6-52.6c27-16,52.1-34.8,74.6-56.8c4.4-4.2,8.1-9.4,11-14.7
			c2.9-5.4,0.2-9.8-5.8-11.5c-1.5-0.4-3.2-0.7-4.8-0.8c-14-0.6-26.7,3.9-37.7,12.1c-6.5,4.8-11.7,11.3-17,17.4
			c-22.1,25.5-47.7,46.9-74.8,66.7c-13.4,9.8-27,19.4-40.5,29.1c-1,0.7-2.1,2.1-2,3.1C528.7,335.8,529.5,338.9,530.2,342.3z
			 M450,342.3c3.8-9,3.4-10.4-3.8-15.5c-26.5-18.6-53.1-36.9-77-58.9c-12.7-11.6-24.7-24.1-36.1-36.9c-7.3-8.1-14.4-15.8-24.4-20.3
			c-9.5-4.4-19.3-7.3-29.9-6.2c-9.5,1-12.7,7.3-7.6,15.3c2.7,4.2,6,8.1,9.6,11.5c24.1,23.3,51,42.8,79.8,59.9
			c19.1,11.4,38.5,22.3,57.9,33.3C429,330.5,439.4,336.3,450,342.3z M659.1,277.5c0.1,0.4,0.1,0.9,0.2,1.3c1.6,0.4,3.2,1,4.9,1.3
			c15.5,1.5,31,3,46.5,4.6c25.3,2.6,50.5,2.2,75.6-1.7c7.8-1.2,15.2-3.4,21-9.3s4.7-13.2-2.5-17.3c-5.4-3-11.3-3.1-17.3-3.1
			c-14.1,0.2-28.2,0.8-42.3,0.3c-12.4-0.4-24.8-1.5-37.1-3.3c-6.4-1-11.6-0.3-16.6,3.5c-6.8,5.2-13.6,10.3-20.5,15.4
			C667.2,272.1,663.2,274.8,659.1,277.5z M321.7,278.8c0.1-0.3,0.1-0.7,0.2-1c-2.1-1.5-4.2-3.1-6.3-4.6c-6.2-4.4-12.5-8.9-18.8-13.3
			c-4.1-2.9-8-6.2-12.4-8.5c-2.4-1.3-6-2-8.6-1.4c-13.7,3.6-27.7,3.8-41.6,3.9c-13.5,0-26.9-0.2-40.4-0.4c-6.2-0.1-12.3-0.1-18,3.1
			c-6.9,4-8.1,10.9-2.7,16.7c4.7,5.2,10.7,8.1,17.5,9c12.1,1.6,24.2,3.2,36.4,3.9c29.8,1.6,59.3-3.1,88.9-5.8
			C317.8,280,319.8,279.3,321.7,278.8z M723,565.5c-0.1-10.6-3.7-19.2-9.1-27.1c-7.5-11-15.2-21.9-23-32.7
			c-5.2-7.3-9.8-15.4-17.7-20.4c-6.3-4-12.7-7.8-19.4-11c-6.4-2.9-13.1-4.8-19.8-7c-0.9-0.3-2.5,0.2-3,0.8c-0.4,0.6-0.1,2.2,0.4,3.1
			c1.4,2.4,2.8,4.8,4.5,6.9c11.8,14.8,22,30.6,29.9,47.9c5.7,12.6,10.4,25.6,15.9,38.3c3.8,8.7,8.9,16.4,18.3,20.1
			c4.4,1.7,8.6,1.6,12.7-0.6C720.4,579.5,722.6,572.6,723,565.5z M350.7,468.4c-0.3-0.4-0.6-0.9-1-1.3c-2.4,0.4-4.9,0.4-7.3,1.2
			c-6,2.1-12.1,4.2-17.9,6.9c-10.9,5.2-21.1,11.1-28.2,21.4c-9.8,14-19.9,27.8-29.6,41.9c-5.2,7.7-8.8,16.1-8.8,25.6
			c0,6.9,1.8,13,7.1,17.6c6.6,5.6,16.2,4.6,23.5-2.3c7-6.6,10.6-15.2,13.7-24c7.3-20.7,16.8-40.3,29-58.6c5-7.5,10.6-14.7,15.8-22
			C348.6,472.7,349.6,470.5,350.7,468.4z M454.1,417.7c-0.9,1.3-1.2,1.7-1.4,2.1c-11.8,24.5-25,48.2-40.1,70.9
			c-14.4,21.6-30.4,41.9-47.3,61.6c-5.4,6.3-10.8,12.7-15.2,19.6c-4,6.4-0.6,13.3,6.6,15.4s14,0.6,20.1-3.5
			c7-4.6,10.6-12.1,14.8-18.8c12.7-20.2,25.3-40.6,37-61.3c11-19.6,20.5-40.1,25.1-62.3C455.4,433.7,455.8,426.1,454.1,417.7z
			 M526.8,417.7c-1.9,7.2-1.5,13.5-0.5,19.9c2.3,14.4,7.4,27.9,13.4,41.1c10.4,23.1,23,45,36.5,66.4c7,11,14,22.1,21.5,32.7
			c6,8.5,14.8,11.9,25.2,9.8c7.9-1.6,11.3-8.5,7.7-15.8c-1.5-2.9-3.2-5.7-5.3-8.2c-11-13.3-22.3-26.2-33.1-39.7
			c-20.6-25.8-38.1-53.7-53.5-82.9C535,433.5,531.2,426,526.8,417.7z M296.4,396.4c-18.5,0.8-37,1.9-54.8,7.4
			c-13.1,4.1-22.8,13-29.8,24.7c-3.1,5.2-0.8,8.8,5.2,9.2c1.2,0.1,2.6,0.1,3.7-0.2c5-1.1,10.1-2.2,15-3.5
			c19.4-5.4,38.6-11,57.9-16.4c9-2.5,18-4.5,26.9-7.2c3-0.9,6.6-2.7,6.4-6.5c-0.3-4-4.2-4.8-7.3-5.2
			C312,397.7,304.2,397.1,296.4,396.4z M684.7,397.2c-4.4,0-8.9-0.3-13.2,0.1c-4.5,0.4-9,1-13.3,2.3c-1.8,0.5-4.2,2.6-4.3,4
			c-0.1,1.8,1.8,4,3.4,5.2c2,1.5,4.6,2.6,7.2,3.3c8.5,2.2,17.2,4,25.6,6.2c17.3,4.8,34.5,9.9,51.9,14.7c6.9,1.9,13.9,3.8,20.9,4.7
			c6.2,0.8,9.2-3.5,6.3-8.7c-6.7-11.9-16.3-20.9-29.5-25.1C721.7,398.3,703.3,397.2,684.7,397.2z M693.7,435.8
			c-0.2,0.3-0.2,0.7-0.4,1c0.4,0.5,0.7,1,1.2,1.4c8.5,7.7,15.7,16.3,19.4,27.4c0.3,1,1.8,1.9,2.9,2.5c9.8,5.3,19.8,10.3,29.5,15.8
			c6.4,3.6,12.5,7.6,19.9,8.5c10.9,1.4,17.4-5.6,15.4-16.5c-2.5-13.2-10.9-21.7-23.2-25.2c-17.1-4.9-34.6-8.7-51.9-12.8
			C702.3,437,698,436.5,693.7,435.8z M287.5,436c-1.8,0.2-3.3,0.1-4.8,0.4c-14.7,3.1-29.4,5.9-43.9,9.4c-7.4,1.8-14.8,4.1-21.7,7.3
			c-10.2,4.8-16.8,13.1-18.1,24.8c-1,9.6,5.3,16.3,14.7,14.6c5.9-1.1,11.7-3.6,17.1-6.5c9.8-5,19.1-11,29.1-15.9
			c4.5-2.2,7.8-4.4,9-9.4c0.5-2.1,1.8-4.2,3.1-6C277,448.6,282.1,442.6,287.5,436z M740.7,541c2.6-1,7.2-1.9,11.1-4.2
			c10.8-6.2,12.7-17.7,4.5-27.1c-2.1-2.4-4.7-4.8-7.5-6.2c-15-7.7-30.1-15.2-45.3-22.3c-2.2-1-6-1.4-7.7-0.1c-2.6,2-0.6,5.4,0.7,7.9
			c7.9,14,15.8,28.1,24,41.9C724.6,537.5,731.2,540.4,740.7,541z M240.5,540.8c8.7,0.1,16-3.8,19.8-10.3c7.8-13.5,15.6-27,23.2-40.6
			c1-1.9,1.8-3.9,2.2-6c0.6-2.7-0.9-4.3-3.5-4c-2.4,0.3-5,1-7.2,2c-9.4,4.4-18.8,9-28.1,13.8c-6.9,3.6-14.2,7.2-20.3,12
			c-10,7.7-9.7,19.8,0.2,27.7C231.1,538.9,236.3,540.6,240.5,540.8z M707.5,237.7c19,1.1,36.9,0.2,54-6.3
			c7.7-2.9,14.9-6.9,19.4-14.3c6.2-10.2,1.2-20.2-10.7-20.2c-6-0.1-12.4,1-17.9,3.4C734.1,208.1,720.7,222,707.5,237.7z
			 M273.2,237.8c-13-15.5-26.1-29-43.8-37.2c-7.4-3.4-15.2-5.4-23.4-3c-8.1,2.4-11,9.8-7.5,17.3c2.9,6.1,7.9,10.2,13.6,13.1
			C231.1,238.1,251.6,238.7,273.2,237.8z M518.7,409.7c-13.3,66.1,20.1,132.6,65,170.4c-0.6-1.4-0.9-2.1-1.3-2.8
			c-11.9-21.6-23.8-43.1-35.5-64.9C535,490,526,466.6,522.1,441.4C520.5,430.9,519.8,420.2,518.7,409.7z M462.7,410
			c-0.3-0.2-0.7-0.3-1-0.5c-0.2,4.1-0.5,8.2-0.7,12.3c-1.3,19.9-5.6,39.3-12.5,58.1c-10.2,27.5-25.5,52.3-39.6,77.9
			c-4,7.1-7.7,14.3-11.5,21.5c0.4,0.2,0.7,0.3,1.1,0.5C447.1,533.5,472.5,478.5,462.7,410z M892,100.1c0.1-12.3-10-22.7-21.9-22.7
			c-12.4-0.1-22.7,10.1-22.7,22.3c-0.1,12.3,9.9,22.3,22.2,22.4C882,122.1,891.9,112.3,892,100.1z M89,99.7
			c-0.1,12.2,9.8,22.3,21.8,22.3c12.7,0.1,22.7-9.7,22.7-22.2c0-12.3-10-22.4-22.2-22.5C99.2,77.3,89.1,87.4,89,99.7z M343.9,380.8
			c0-0.3-0.1-0.6-0.1-0.9c-3.7-0.4-7.5-0.8-11.2-1.4c-25.6-3.5-51.2-4.6-76.7,0.5c-7.4,1.5-14.6,4.4-21.8,6.9
			c-1.4,0.5-2.3,2.4-3.4,3.6c1.5,0.9,3,2.3,4.6,2.5c3.7,0.3,7.6,0.5,11.3-0.1c9.2-1.4,18.2-3.7,27.4-4.8c17.3-2.1,34.5-3.6,51.8-5.3
			C331.9,381.4,337.9,381.2,343.9,380.8z M637.4,380.7c1.1,0.2,2.2,0.3,3.3,0.4c29.6,1.6,59.1,4,88.2,10.2c5.7,1.2,11.9,0.6,18,0.5
			c1.1,0,2.2-1.4,3.2-2.1c-0.8-1-1.4-2.7-2.4-3.1c-5.2-2.3-10.3-4.8-15.7-6.1C700.5,373,668.9,375.4,637.4,380.7z M223.5,141.9
			c0,8.8,7.6,16.5,16.3,16.4c8.8-0.1,16.2-7.6,16.2-16.5c0-9-7.2-16.2-16.3-16.1C230.6,125.6,223.5,132.7,223.5,141.9z M741.1,125.6
			c-9,0-16.2,7.3-16.1,16.4c0.1,8.7,7.4,16.3,16,16.3c8.7,0.1,16.3-7.5,16.3-16.4C757.3,132.7,750.1,125.6,741.1,125.6z
			 M302.9,182.2c-0.2,7.7,5.9,13.8,13.5,13.9c7.4,0,13.4-6,13.5-13.4c0.1-7.3-6-13.5-13.3-13.7C309.2,168.8,303,174.8,302.9,182.2z
			 M678,182.3c0-7.4-6-13.5-13.3-13.5c-6.5,0-13.7,5.2-13.5,13.6c0.2,7.7,6.1,13.5,13.7,13.5C672.4,195.8,678,190,678,182.3z
			 M844,172c0,6.7,5.5,12,12,11.9c6.4-0.2,11.7-5.6,11.6-12c0-6.5-5.6-12-12.1-11.9C849.1,160.2,844,165.5,844,172z M136.7,171.9
			c0-6.5-5.2-11.8-11.6-11.9c-6.2-0.1-11.8,5.4-11.9,11.8c-0.1,6.3,5.4,12,11.5,12.1C131.3,184,136.7,178.6,136.7,171.9z
			 M800.7,120.7c6,0.2,10.6-4.4,10.7-10.3c0.1-5.9-4.1-10.2-9.9-10.5c-6-0.2-10.8,4.2-11,10C790.3,115.7,794.9,120.5,800.7,120.7z
			 M180,120.7c6,0,10.4-4.6,10.4-10.6c-0.1-5.9-4.6-10.2-10.8-10.2c-5.6,0-10.1,4.5-10.1,10.2C169.6,116.2,174.1,120.7,180,120.7z
			 M822.9,198.1c-0.1-4-3.9-7.7-7.9-7.6c-4,0.1-7.7,3.8-7.7,7.8c0.1,4.1,3.7,7.6,7.9,7.5C819.5,205.8,823,202.3,822.9,198.1z
			 M173.4,198.1c-0.1-4.2-3.7-7.7-7.8-7.6c-4,0.1-7.7,3.9-7.7,7.8c0.1,4.1,3.7,7.6,7.9,7.5C170,205.8,173.4,202.4,173.4,198.1z
			 M839.2,245.2c4.2,0,7.3-3.3,7.3-7.5c-0.1-4-3.3-7.3-7.2-7.3c-4-0.1-7.4,3.4-7.5,7.5C831.8,241.9,835.1,245.2,839.2,245.2z
			 M148.8,238c0.1-4.2-3.1-7.6-7.2-7.7c-4-0.1-7.5,3.5-7.4,7.5c0,4,3.1,7.2,7.1,7.3C145.4,245.3,148.8,242.2,148.8,238z M622,222.8
			c0-3.5-3.5-7-7-6.9c-3.6,0.1-6.6,3.1-6.7,6.8c-0.1,4,2.7,6.9,6.8,6.9C618.8,229.7,622,226.6,622,222.8z M358.9,222.9
			c0,3.7,3.3,6.9,7.1,6.8c4-0.1,6.7-3.1,6.6-7.1c-0.1-3.7-3.1-6.7-6.8-6.7C362.3,215.9,358.9,219.4,358.9,222.9z M732,187.7
			c3.5,0,6.5-3.1,6.5-6.5c-0.1-3.5-3.1-6.5-6.6-6.3c-3.4,0.1-6.1,2.9-6.2,6.3C725.4,184.8,728.4,187.7,732,187.7z M248.8,187.7
			c3.5,0,6.5-3.1,6.4-6.5c-0.2-3.4-3-6.2-6.3-6.3c-3.4-0.1-6.5,3.1-6.3,6.6C242.7,184.9,245.6,187.7,248.8,187.7z M796.5,164.2
			c3,0.1,5.5-2.4,5.5-5.6c0-2.9-2.3-5.3-5.2-5.5c-2.9-0.2-5.6,2.4-5.6,5.3C791.1,161.6,793.5,164.1,796.5,164.2z M184.6,153.1
			c-2.7-0.2-5.3,2.2-5.6,5.1c-0.2,3.1,2.1,5.7,5.1,6c2.7,0.2,5.3-2.2,5.6-5.1C189.9,156.2,187.5,153.3,184.6,153.1z"/>
	</g>
</g>
</svg>
