<?xml version="1.0" encoding="utf-8"?>
<!-- Generator: Adobe Illustrator 23.0.6, SVG Export Plug-In . SVG Version: 6.00 Build 0)  -->
<svg version="1.1" id="Layer_1" xmlns="http://www.w3.org/2000/svg" xmlns:xlink="http://www.w3.org/1999/xlink" x="0px" y="0px"
	 viewBox="0 0 864 864" enable-background="new 0 0 864 864" xml:space="preserve">
<g>
	<path d="M389.3117,798.2901c-5.2064-1.678-9.7566-1.2131-11.9128,1.226c-2.2167,2.5076-1.9941,7.0845,0.6095,12.5576
		c0.5302,1.115,0.4103,2.4293-0.3117,3.4303c-0.723,1-1.9357,1.5223-3.1577,1.3757c-0.8588-0.1071-1.6834-0.1595-2.4679-0.1595
		c-4.521,0-7.7367,1.7433-8.8012,4.8743c-1.284,3.7772,0.7042,9.5346,6.9894,13.2296c0.2037,0.1199,0.395,0.2617,0.5694,0.4212
		c2.3287,2.1329,10.4841,5.584,38.7119,6.0717l-1.2791-0.7651c-0.5912-0.3538-1.06-0.8792-1.344-1.5065
		c-1.0446-2.3083-0.5471-3.9387,0.0545-4.9011c0.5947-0.9525,1.8197-2.1022,4.2747-2.1725c0.6888-0.0337,1.3796,0.1754,1.9599,0.559
		l1.1566,0.7642C405.3848,813.936,396.9726,802.1763,389.3117,798.2901z"/>
	<path d="M431.4068,834.3764c-6.3875,0-11.5656,3.7261-11.5656,8.3226c0,1.0302,0.275,2.0115,0.7513,2.9219
		c7.1393,0.3394,14.3002,0.4598,21.4566,0.3251c0.5902-0.9981,0.9232-2.0938,0.9232-3.247
		C442.9724,838.1025,437.7942,834.3764,431.4068,834.3764z"/>
	<path d="M497.5966,821.8521c-1.4118-3.0328-5.691-4.6563-11.7533-4.4611c-1.2364,0.0258-2.3916-0.5947-3.02-1.6572
		c-0.6284-1.0615-0.6279-2.3827,0.0015-3.4442c2.9843-5.0339,3.0527-9.6,0.1833-12.2136c-2.9496-2.687-9.0217-3.1677-14.9214,1.117
		c-0.1913,0.1397-0.3969,0.2577-0.613,0.3538c-2.8857,1.2825-9.3096,7.3779-21.0416,33.056l1.2101-0.8653
		c0.5605-0.4004,1.23-0.6194,1.9183-0.6293c0.0392,0,0.0778,0,0.116,0c2.457,0,3.7237,1.0883,4.3555,2.009
		c0.6348,0.9257,1.1992,2.5076,0.283,4.7862c-0.2597,0.6462-0.7126,1.1953-1.2959,1.5739l-1.1631,0.7552
		c21.3325-0.4906,35.4739-3.5006,42.103-8.9706C497.5773,829.1627,498.9708,824.8057,497.5966,821.8521z"/>
	<path d="M425.8307,830.7812l-0.0396-1.4857c-0.0183-0.6888,0.1744-1.3658,0.5515-1.9417c1.3881-2.12,3.0319-2.5749,4.1667-2.5828
		c1.1591,0.0228,2.7499,0.4093,4.1251,2.4431c0.39,0.5758,0.5922,1.2587,0.5798,1.9545l-0.0253,1.3856
		c11.5283-17.9572,16.9443-31.3632,16.1182-39.9156c-1.3742-5.2926-4.2054-8.8854-7.4221-9.3979
		c-3.3039-0.5352-7.0494,2.1131-10.273,7.2462c-0.6566,1.0456-1.8296,1.6502-3.0626,1.5759
		c-1.232-0.0734-2.3262-0.8127-2.8545-1.9277c-2.1725-4.5919-5.2827-7.1658-8.5331-7.1658c-0.4941,0-0.9906,0.0594-1.4887,0.1804
		c-3.8773,0.9416-7.6708,5.7069-7.4206,12.9937c0.0079,0.2369-0.0084,0.4728-0.05,0.7067
		C409.6511,797.9581,411.1095,806.6918,425.8307,830.7812z"/>
	<path d="M433.8577,694.4325c0.0004,0.011-0.0023,0.0212-0.002,0.0322c2.6555,1.9688,9.8429,6.6519,17.3467,5.9344
		c4.2578-0.41,7.934-2.489,11.2158-6.2977c1.1765-11.6013,1.5836-22.9553,1.5632-33.2541
		c-14.2851,1.0909-25.3976,1.71-30.0519,1.9506C433.7162,676.0714,433.623,688.4182,433.8577,694.4325z"/>
	<path d="M463.9001,653.692c-0.4511-21.659-2.5914-37.1224-2.6249-37.3632c-0.169-1.1909,0.278-2.3241,1.094-3.0887
		c-2.7588-4.233-5.948-6.5609-9.7316-7.0555c-6.8011-0.8986-14.3696,4.4214-17.5994,7.2998
		c-0.0001,0.0228,0.0054,0.0443,0.0049,0.0673c-0.0108,0.3657-0.6013,21.2061-0.9899,42.1219
		C438.8983,655.4127,449.8986,654.7758,463.9001,653.692z"/>
	<path d="M497.5559,650.6351c-1.2942-19.8168-4.1464-35.7332-4.194-35.9962c-0.0637-0.3489-0.0571-0.6913-0.0198-1.0266
		c-9.9958-8.1158-23.7295,0.8661-25.0291,1.7523c0.0994,0.7126,2.2045,16.1708,2.6778,37.7603
		C479.2632,652.4408,488.299,651.6144,497.5559,650.6351z"/>
	<path d="M417.5903,607.4473c-7.7697-0.4084-15.1873,5.6529-17.2574,7.4998c-0.0011,0.1353,0.0079,0.269-0.009,0.4065
		c-0.0317,0.2603-2.1359,17.7501-2.4267,40.3198c9.4225,0.4763,19.1448,0.616,29.04,0.3052
		c0.3789-20.5778,0.9614-41.1377,1.0035-42.6291c0.0052-0.1799,0.0371-0.3514,0.0677-0.5231
		C424.8874,609.4246,421.469,607.6508,417.5903,607.4473z"/>
	<path d="M416.3147,663.2517c-6.2479,0-12.4054-0.1678-18.4445-0.4688c0.0492,9.3333,0.4446,19.2664,1.4377,29.0508
		c0.0622,0.6122-0.05,1.1965-0.2731,1.7264c1.7938,1.5581,8.9484,7.2855,16.7783,6.9152c4.0644-0.1982,7.6674-2.008,10.9852-5.4806
		c-0.0114-0.0956-0.0355-0.187-0.0392-0.2848c-0.2397-6.142-0.1529-18.4301,0.0562-31.6373
		C423.2943,663.1797,419.7867,663.2517,416.3147,663.2517z"/>
	<path d="M528.5429,646.7756c-1.194-20.1961-0.9215-37.7473-0.9009-38.9289c0.0005-0.0272,0.0082-0.0523,0.0092-0.0794
		c-4.0267-2.9822-8.1339-4.2346-12.2198-3.6978c-7.6584,1.0179-13.5063,7.8335-15.0022,9.7332
		c0.5018,2.8409,3.0229,17.709,4.2311,36.0542C512.676,648.9482,520.749,647.9235,528.5429,646.7756z"/>
	<path d="M336.6263,542.7662c-4.5046,0-8.1563,3.6517-8.1563,8.1564c0,4.5046,3.6517,8.1563,8.1563,8.1563
		c4.5046,0,8.1564-3.6517,8.1564-8.1563C344.7827,546.418,341.1309,542.7662,336.6263,542.7662z"/>
	<path d="M526.7143,697.2156c3.6008-1.6006,5.9091-4.9507,7.0558-10.2443l0.082-0.3779c-0.3942-0.4468-0.6821-0.9982-0.8124-1.6232
		c-1.9493-9.3538-3.2075-20.3458-4.017-31.0557c-7.852,1.1557-15.9527,2.183-23.9729,3.0916
		c0.5003,11.6494,0.3543,24.1844-1.1978,35.6622c-0.0478,0.3518-0.1578,0.6771-0.2971,0.9846
		C508.9836,696.3347,519.7673,700.3025,526.7143,697.2156z"/>
	<path d="M384.3936,607.5445c-6.6335-0.9472-13.5443,3.8632-15.7597,5.5764c0.0269,0.3094,0.0285,0.6239-0.0299,0.9442
		c-0.0409,0.2209-2.6957,15.118-3.5053,38.5886c8.18,1.0823,16.7854,1.9809,25.7004,2.5961
		c0.3136-22.8608,2.4412-40.5002,2.474-40.7644c0.0325-0.2656,0.0987-0.5176,0.185-0.7593
		C390.8806,610.0825,387.9079,608.0441,384.3936,607.5445z"/>
	<path d="M497.942,657.7827c-9.3851,0.9911-18.5181,1.8205-26.8611,2.5031c0.0364,10.3608-0.3519,21.7902-1.4937,33.4897
		c3.7056,3.0534,11.6837,8.2912,18.3145,7.2588c3.5908-0.558,6.4899-2.8703,8.8607-7.0687l0.2748-0.4865
		c-0.2133-0.5443-0.3101-1.142-0.2262-1.7624C498.2711,680.9223,498.4135,668.9797,497.942,657.7827z"/>
	<path d="M573.6102,636.8197c-0.1103-10.0299,0.972-17.3725,1.0518-17.8971c0.0543-0.3565,0.1747-0.683,0.3229-0.9919
		c-1.7848-2.9709-3.9003-4.7559-6.3043-5.2888c-3.1946-0.7081-6.3757,0.7758-7.9246,1.6734
		c-0.1142,2.5497-0.5645,13.8659-0.1962,26.4313C565.472,639.5241,569.883,638.2172,573.6102,636.8197z"/>
	<path d="M535.6198,645.6864c6.2904-1.0148,12.3085-2.117,17.87-3.309c-0.5104-14.7816,0.1509-28.0751,0.197-28.9684
		c0.0211-0.4081,0.1232-0.79,0.2679-1.1488c-1.2634-3.8687-3.2098-6.3152-5.8112-7.2401
		c-4.5929-1.6356-10.5617,1.1641-13.4142,2.7692c0.0023,0.0606,0.0161,0.118,0.0151,0.1794
		C534.7394,608.253,534.4701,625.6505,535.6198,645.6864z"/>
	<path d="M300.678,646.6052c-5.4174-1.5388-9.5189-2.8314-12.0653-3.6664c-0.2768,5.3126-0.837,11.2599-1.8462,17.6721
		c0.0777,0.2569,0.135,0.5229,0.1528,0.8022c0.1873,2.9426,2.4728,6.2282,5.4333,7.813c1.53,0.8196,3.8127,1.4888,6.4272,0.4523
		c-0.138-0.4663-0.188-0.966-0.1187-1.4791C299.6453,660.9235,300.2773,653.5179,300.678,646.6052z"/>
	<path d="M560.8672,647.983c0.4034,7.1398,1.1294,14.2219,2.3859,19.928c0.0598,0.2711,0.0788,0.5402,0.0759,0.8064l0.0927,0.0589
		c0.0159,0.0099,3.8525,2.3212,7.9488,1.1923c2.5648-0.7078,4.8362-2.6561,6.7694-5.7937c-0.6274-0.4612-1.11-1.1281-1.3271-1.9391
		c-1.6279-6.0773-2.4902-12.2589-2.8988-17.9822C570.0667,645.579,565.6737,646.8209,560.8672,647.983z"/>
	<path d="M301.2223,613.09c-1.3591-1.2064-2.7657-1.798-4.2619-1.798c-0.0347,0-0.0694,0-0.1031,0.001
		c-3.46,0.0626-7.1066,3.0993-9.24,5.343c0.0735,0.2051,0.1337,0.4175,0.1692,0.6405c0.0727,0.4588,1.1272,7.3322,1.0479,18.2463
		c1.6789,0.5747,5.8998,1.977,12.1936,3.7966c0.5567-14.5251,0.1607-25.4173,0.1545-25.5912
		C301.1742,613.5104,301.1927,613.2983,301.2223,613.09z"/>
	<path d="M536.0864,652.8256c0.7847,10.6593,2.0078,21.5735,3.909,30.6956c0.0414,0.1994,0.055,0.3974,0.0624,0.5943
		c4.5438-0.3758,13.8272-2.4152,17.7374-12.5117c-0.725-0.4921-1.277-1.2416-1.48-2.1645
		c-1.2778-5.8029-2.0407-12.8069-2.481-19.8688C548.2626,650.7448,542.2881,651.8276,536.0864,652.8256z"/>
	<path d="M390.7637,662.3658c-8.958-0.6092-17.6083-1.5024-25.8445-2.5786c-0.1643,10.1796,0.0437,21.6619,0.9294,34.0655
		c0.0433,0.6066-0.0832,1.1808-0.3162,1.6992c3.4453,2.1169,14.6871,7.5905,27.1405-1.6411
		c-0.227-0.4088-0.3833-0.8648-0.4336-1.3595C391.2064,682.374,390.8025,672.0408,390.7637,662.3658z"/>
	<path d="M351.9738,602.9437c-6.8693-1.8861-14.5135,1.4744-18.0058,3.3366c0.1414,0.2728,0.2617,0.5599,0.3301,0.8747
		c0.1294,0.5975,2.3362,11.4904-0.8138,40.1446c7.4977,1.5461,15.7188,3.043,24.5065,4.3533
		c0.83-23.2755,3.4567-37.9518,3.6247-38.8663c0.0607-0.3329,0.1797-0.6373,0.3223-0.9263
		C359.4286,607.0333,356.1683,604.0966,351.9738,602.9437z"/>
	<path d="M305.7021,669.1509c-0.0559,0.4121-0.1867,0.7942-0.3666,1.1441l-0.0804,2.0403c-0.001,0.0516-0.1536,6.6941,3.9784,9.9529
		c2.5546,2.0162,6.4424,2.4537,11.5467,1.3381c0.002-0.0114,0.0007-0.0224,0.0028-0.0338
		c2.216-11.845,3.7842-22.0114,4.8876-30.7058c-6.7224-1.4852-12.763-2.9771-17.9937-4.3625
		C307.2643,655.1712,306.64,662.2168,305.7021,669.1509z"/>
	<path d="M357.8026,658.8002c-9.0178-1.3274-17.4565-2.852-25.1626-4.4303c-1.118,8.7217-2.6844,18.8285-4.8734,30.529
		c-0.089,0.4761-0.2764,0.9062-0.5264,1.2875c2.4218,3.9673,12.0386,16.7352,31.7009,9.0217
		c-0.0889-0.2714-0.1577-0.5521-0.179-0.8499C357.8309,681.3173,357.6193,669.3381,357.8026,658.8002z"/>
	<path d="M327.3542,608.6615c-0.1321-0.61-0.0834-1.2119,0.085-1.7701c-3.2489-2.5568-6.2935-3.5408-9.0576-2.8931
		c-4.9973,1.1705-8.7843,7.4037-9.821,9.7071l-0.2539,0.5633c0.0846,2.9428,0.3184,13.6199-0.2516,27.0104
		c5.283,1.4206,11.4857,2.9743,18.4492,4.5248C329.4168,618.8465,327.3838,608.7956,327.3542,608.6615z"/>
	<path d="M534.5112,542.7662c-4.5045,0-8.1563,3.6517-8.1563,8.1564c0,4.5046,3.6517,8.1563,8.1563,8.1563
		c4.5046,0,8.1565-3.6517,8.1565-8.1563C542.6677,546.418,539.0159,542.7662,534.5112,542.7662z"/>
	<path d="M422.1753,526.7026c11.6331,1.0367,12.3354-8.2432,12.3354-8.2432s0.4013,9.2993,12.1568,8.2432
		c13.1142-1.1782,9.3212-20.8016,6.6788-27.1691c-2.6423-6.3675-18.9249-31.8962-18.9249-31.8962s-16.2827,25.5287-18.9249,31.8962
		C412.8542,505.9011,409.0602,525.5339,422.1753,526.7026z"/>
	<path d="M130.6003,185.4275c10.1127,5.0783,22.6675,4.672,32.738-0.2981c0.7802-0.3968,1.896-0.8422,1.4793-1.9666
		c-0.4411-4.5354-1.2822-9.0419-1.4618-13.5995c0.2184-4.4886,1.5783-8.8213,2.7274-13.1426
		c0.3521-2.489-2.5502-3.7365-4.282-4.8912c-4.98-2.2287-10.467-4.679-16.0559-3.8189l0.0024,0.0034
		c-0.3725,0.0574-0.7456,0.1296-1.119,0.2173c-11.4289,2.9099-20.8674,12.5631-33.3424,11.3226
		c-1.2922-0.0478-3.7928-1.7642-4.0198,0.2877l0.1129,0.7793C113.2458,170.0931,119.899,180.2147,130.6003,185.4275z"/>
	<path d="M742.0729,254.5883c-8.0956-9.0871-5.5787-21.9765-9.6938-32.5992c-0.1404-0.3428-0.2933-0.6767-0.4581-1.0016h0.0042
		c-2.4717-4.875-7.5864-7.7904-12.2326-10.4337c-1.9254-0.7037-4.5913-2.2733-6.4221-0.5836
		c-2.8732,3.3556-10.2369,6.5911-10.2369,6.5911s-12.1266,0.6835-18.425,9.6217c-7.0942,10.0654-22.5089,25.7314-41.6639,15.021
		c-19.155-10.711-16.5597-21.931-7.4647-16.3885c19.6812,11.9956,31.6278,5.3134,40.6198-5.7889
		c5.0135-6.1893,11.7917-18.9166,17.3502-27.5077c-0.7071-1.6303-1.4318-3.2606-2.1726-4.8907
		c0.4939-0.3239,0.9917-0.6499,1.4953-0.9795c12.3152-8.0588,26.2738-17.1931,28.2113-28.6662
		c0.7758-4.5934-0.4235-8.9883-3.5645-13.0625c-5.7747-7.4894-10.7799-11.547-16.5754-16.2452
		c-7.0897-5.7474-15.913-12.9001-30.4755-29.7494c-8.9536-10.3589-16.5945-15.1834-24.0465-15.1834
		c-8.9592,0-14.6308,7.0235-19.1881,12.6671c-0.1111,0.1376-0.2206,0.2726-0.3311,0.4092
		c-49.2712-47.628-109.5362-74.3165-175.7466-77.505c-75.7582-3.6424-153.4521,24.6726-207.7861,75.7621
		c-0.984,0.9252-1.956,1.8633-2.9199,2.81c-4.6077,0.4166-8.4736,0.598-12.0188,0.7635c-7.9563,0.3717-14.241,0.665-23.4986,3.2781
		c-4.4774,1.2637-7.703,3.7623-9.5877,7.426c-4.9898,9.7006,0.5843,25.1895,5.5022,38.8551c0.0407,0.113,0.0805,0.2239,0.121,0.3365
		c-1.6474,2.7643-3.2503,5.5617-4.8093,8.3906c1.0938-11.2059,0.7666-16.0791-2.2872-17.7191
		c-1.1542-0.6199-3.0566-0.9123-5.5642,1.2132c-1.0823,0.9183-2.4397,1.956-3.8768,3.0546
		c-6.7119,5.1306-15.9041,12.1572-16.9928,21.7587c-0.7092,6.2515,2.2231,9.3855,4.8099,12.1507
		c2.4932,2.6651,4.6469,4.9665,4.4318,10.4633c-0.1095,2.8034-0.077,6.5635,0.4446,10.6722
		c-0.7868,2.0987-1.5571,4.2054-2.304,6.3225c-0.1828-0.6149-0.366-1.2289-0.5523-1.8409c-1.1679-2.654-4.7818-2.1827-7.1876-2.3046
		c-6.2544,0.7225-13.1422,1.5237-18.1162,5.6407l0.0045,0.0019c-0.3315,0.2744-0.6546,0.5638-0.9684,0.8686
		c-9.4711,9.5514-12.8818,24.5704-25.9071,30.6516c-1.3001,0.7093-4.804,0.4846-3.7787,2.6355l0.585,0.7004
		c11.7157,6.1787,24.4179,12.2405,38.1153,11.1046c1.5892-0.1126,3.1637-0.3302,4.7174-0.6388
		c-13.6371,64.5066-10.8972,131.9722,5.8452,183.8633c1.7484-1.6108,3.5716-3.344,5.4816-5.2357
		c25.6275-25.3792,19.0648-60.4215,14.7217-83.6094c-1.0015-5.3481-1.7367-9.9798-2.176-13.7251
		c-2.454-20.9209,34.3802-40.9192,23.0858-93.4791c-0.5892-2.74,1.1547-5.4383,3.8951-6.027c2.74-0.5887,5.4388,1.1547,6.027,3.8951
		c12.1804,56.681-24.6353,81.6259-22.8925,94.7794c0.4264,3.2188,1.0863,7.6163,2.0363,12.6884
		c4.4497,23.7578,11.897,63.5212-17.5558,92.6891c-8.8745,8.7893-16.2733,14.634-21.6754,18.9027
		c-7.648,6.0419-10.772,8.6406-11.2731,12.3207c-0.6492,4.7643,2.4793,13.1156,8.4806,26.8585
		c18.2684,41.8413,31.8672,44.334,49.0835,47.4908c6.8735,1.2598,14.6642,2.6879,23.0214,6.7803
		c30.437,14.9025,28.5757,43.1556,28.4815,44.3509c-0.2091,2.6582-2.4317,4.6761-5.0533,4.6761
		c-0.1338,0-0.2681-0.0049-0.4039-0.0159c-2.7866-0.219-4.8694-2.6503-4.6623-5.4353c0.0659-0.9822,1.2206-22.6869-22.8251-34.4614
		c-7.1004-3.4759-13.8554-4.7148-20.3884-5.912c-7.3443-1.3467-14.5278-2.6663-21.7919-6.6574
		c-0.2822,1.952-0.5201,6.007,0.1527,13.9402c0.7547,8.8914,6.8507,21.6977,12.7464,34.0818
		c7.0732,14.8579,13.7538,28.8923,13.5442,39.7283c-0.0461,2.3707-0.2914,5.4542-0.5753,9.0251
		c-0.2648,3.3291-0.5654,7.1232-0.7871,11.2434c4.4032-7.222,10.7677-13.3261,18.5236-17.2523
		c4.3259-2.0858,9.0745-3.5681,14.0333-3.8494c2.4703-0.2224,4.9648-0.014,7.4779,0.3273c2.4696,0.4747,4.9235,1.1145,7.2183,2.126
		c4.6311,1.921,8.8517,4.7991,12.2874,8.4776c3.4366,3.6555,6.3228,7.9962,7.9361,12.9664
		c0.3795,1.2474,0.7752,2.4932,0.9807,3.7982c0.1143,0.6478,0.2698,1.2894,0.3416,1.946l0.1659,1.9802l0.0666,0.9924l-0.028,0.9975
		l-0.0727,1.9971c-0.1371,1.3085-0.3003,2.6191-0.5692,3.8964c-1.1174,5.0988-3.3872,9.7728-6.4581,13.8466
		c-3.0835,4.0503-7.1348,7.4928-12.0055,9.6349c-1.1788,0.5884-2.5124,0.9102-3.7834,1.3007
		c-0.6299,0.2114-1.3284,0.2545-1.9872,0.3806c-0.6725,0.0836-1.323,0.2528-2.0069,0.2495
		c-1.3615-0.0042-2.713,0.1271-4.0485-0.1538l-1.988-0.332c-0.6713-0.1933-1.3402-0.3493-1.9923-0.6159
		c-2.621-0.9486-5.019-2.6318-6.7065-4.7349c-1.6971-2.1043-2.8053-4.4926-3.412-6.9112c-0.5794-2.4297-0.7584-4.8898-0.4248-7.3008
		c0.1747-1.2026,0.4474-2.3945,0.9323-3.5359c0.5102-1.1064,1.1873-2.2877,2.415-2.9061c0.1783-0.0893,0.4018-0.0641,0.5557,0.0801
		c0.1975,0.1852,0.2076,0.4954,0.0224,0.6929l-0.0466,0.0497c-0.6265,0.6682-0.901,1.6488-1.0184,2.6365
		c-0.1271,0.9922-0.0912,2.0249,0.0361,3.0358c0.2576,2.024,0.8426,4.005,1.7452,5.7521c0.856,1.763,2.0179,3.2983,3.38,4.4096
		c1.3657,1.1057,2.8627,1.8527,4.5035,2.1344c0.3974,0.0986,0.8297,0.1089,1.2376,0.1665l1.3227-0.0169
		c0.8693,0.0825,1.7352-0.155,2.586-0.2336c0.4274-0.0347,0.8432-0.2337,1.2616-0.3333c0.414-0.1443,0.8407-0.1865,1.2406-0.3981
		c0.8018-0.3905,1.6257-0.6526,2.3762-1.1799c3.0735-1.8035,5.8291-4.4575,7.8796-7.6254c0.5005-0.7996,1.0624-1.5554,1.4679-2.4119
		l0.6664-1.2444l0.5542-1.2944c0.776-1.7096,1.311-3.494,1.7255-5.2758c0.1578-0.8936,0.3167-1.7848,0.4381-2.673l0.0794-1.3253
		l0.0481-0.6637l-0.0359-0.6673c-0.0262-0.4448-0.035-0.8911-0.0429-1.3391c-0.0179-0.4474-0.1144-0.8913-0.1629-1.3392
		c-0.0728-0.9014-0.3171-1.7822-0.5245-2.673c-1.7594-7.1296-7.177-13.7364-14.1274-17.0797
		c-6.8913-3.499-15.3553-3.0729-22.7921,0.1444c-7.4741,3.2181-14.0084,8.9968-18.382,16.1481
		c-1.2341,1.9929-2.2935,4.0936-3.2095,6.262c-0.0222,26.0663,5.7148,59.1896,38.6327,75.0963
		c-1.3241-4.9988-2.278-10.0663-2.7063-15.1333c-0.5509-6.5186,9.6031-6.4605,10.1491,0c0.0195,0.2298,0.0442,0.4594,0.0716,0.6884
		c0.0318,0.265,0.0473,0.4134,0.0543,0.4974c0.0199,0.1116,0.0429,0.2427,0.0737,0.4218c0.1951,1.1379,0.3765,2.2765,0.5963,3.4102
		c0.64,3.3021,1.4443,6.5724,2.3717,9.8051c2.9035,10.1211,6.5782,18.7859,11.7348,27.9453
		c15.8445,28.1438,41.5549,49.0851,71.1912,61.4744c7.7802,3.2524,15.7786,5.9502,23.9119,8.1826
		c-5.0006-4.9742-7.0665-11.5733-5.0664-17.4586c1.4956-4.3986,5.6871-8.7209,13.1547-9.377
		c-1.7047-6.033-0.9277-11.3405,2.3103-15.0027c4.074-4.6068,11.3003-5.7614,19.3304-3.0913
		c0.1437,0.0486,0.2845,0.106,0.4202,0.1724c4.1039,2.0112,8.2268,5.6176,12.4063,10.8638c-1.2397-4.3014-1.2903-7.0146-1.0039-8.95
		c-0.2057-9.6218,4.9373-17.5945,12.5908-19.4528c4.5126-1.0992,10.4103,0.1219,14.9685,6.0766
		c4.1776-4.6732,9.0688-6.8635,13.903-6.0925c6.0731,0.9683,10.9227,6.4493,12.9724,14.6597
		c0.0367,0.1477,0.0634,0.2964,0.0803,0.448c0.4109,3.719-0.0886,8.0318-1.477,12.9478c3.3672-4.3182,5.9015-6.1544,7.8668-7.0962
		c7.8621-5.5533,17.3482-5.7476,23.1685-0.446c3.4343,3.1299,5.7208,8.6981,3.3366,15.8065
		c6.2104,0.8494,10.7646,3.683,12.8271,8.1154c2.5953,5.576,0.7657,12.6616-4.8937,18.9543
		c-0.1016,0.113-0.2106,0.219-0.3266,0.3171c-0.3354,0.2845-0.7086,0.5532-1.071,0.8264
		c37.3792-9.1387,72.723-28.9041,95.8624-60.2419c7.554-10.2303,14.0031-21.5887,18.0435-33.393
		c1.4592-4.2628,2.6547-8.6352,3.3411-13.0928c0.0188-0.1982,0.1634-1.3388,0.2076-1.9458c0.0504-0.694,0.0887-1.39,0.0907-2.086
		c0.002-0.6971-0.0357-1.3856-0.0786-2.0807c-0.0005-0.0103-0.0005-0.0153-0.0011-0.0248
		c-0.0274-0.0972-0.0631-0.2358-0.1097-0.4319c-1.512-6.3606,8.2767-9.0497,9.7865-2.6981c0.3705,1.5587,0.5259,3.189,0.5522,4.79
		c0.0969,5.9109-1.2075,11.9223-3.0798,17.6944c36.4116-18.3165,38.6677-58.1245,37.3229-84.7926
		c-0.4629-0.8713-0.9478-1.7302-1.4665-2.5679c-4.3736-7.1513-10.908-12.93-18.3821-16.1481
		c-7.4368-3.2173-15.9008-3.6434-22.7921-0.1444c-6.9504,3.3433-12.3679,9.9501-14.1274,17.0797
		c-0.2073,0.8909-0.4517,1.7717-0.5245,2.673c-0.0485,0.4479-0.145,0.8918-0.1628,1.3392c-0.0079,0.448-0.0168,0.8943-0.043,1.3391
		l-0.0358,0.6673l0.0481,0.6637l0.0793,1.3253c0.1214,0.8882,0.2802,1.7794,0.438,2.673c0.4146,1.7818,0.9495,3.5662,1.7256,5.2758
		l0.5541,1.2944l0.6664,1.2444c0.4055,0.8565,0.9673,1.6123,1.4679,2.4119c2.0504,3.1679,4.8061,5.8218,7.8796,7.6254
		c0.7504,0.5272,1.5744,0.7894,2.3762,1.1799c0.3999,0.2116,0.8265,0.2537,1.2405,0.3981c0.4185,0.0995,0.8343,0.2986,1.2617,0.3333
		c0.8509,0.0787,1.7166,0.3162,2.586,0.2336l1.3228,0.0169c0.4078-0.0576,0.8402-0.0679,1.2375-0.1665
		c1.6408-0.2817,3.1378-1.0287,4.5035-2.1344c1.3621-1.1113,2.5239-2.6466,3.38-4.4096c0.9025-1.7471,1.4874-3.728,1.7451-5.7521
		c0.1274-1.0109,0.1633-2.0436,0.0362-3.0358c-0.1175-0.9877-0.392-1.9683-1.0184-2.6365l-0.0466-0.0497
		c-0.1853-0.1975-0.1752-0.5077,0.0223-0.6929c0.1539-0.1443,0.3774-0.1694,0.5557-0.0801c1.2277,0.6184,1.9047,1.7997,2.415,2.9061
		c0.4848,1.1414,0.7576,2.3334,0.9323,3.5359c0.3336,2.4109,0.1547,4.871-0.4247,7.3008c-0.6068,2.4186-1.7151,4.8069-3.4122,6.9112
		c-1.6874,2.1031-4.0854,3.7863-6.7065,4.7349c-0.6522,0.2666-1.321,0.4226-1.9924,0.6159l-1.9879,0.332
		c-1.3356,0.2809-2.687,0.1497-4.0485,0.1538c-0.6838,0.0033-1.3343-0.1659-2.0069-0.2495
		c-0.6587-0.1262-1.3572-0.1692-1.9872-0.3806c-1.271-0.3905-2.6046-0.7123-3.7835-1.3007
		c-4.8707-2.1422-8.9219-5.5847-12.0055-9.6349c-3.0708-4.0739-5.3406-8.7478-6.4579-13.8466
		c-0.2691-1.2772-0.4321-2.5879-0.5693-3.8964l-0.0726-1.9971l-0.0281-0.9975l0.0667-0.9924l0.1659-1.9802
		c0.0717-0.6566,0.2272-1.2982,0.3416-1.946c0.2054-1.3049,0.6011-2.5507,0.9807-3.7982c1.6133-4.9702,4.4995-9.3109,7.936-12.9664
		c3.4357-3.6785,7.6564-6.5566,12.2875-8.4776c2.2947-1.0115,4.7487-1.6514,7.2183-2.126c2.513-0.3414,5.0077-0.5497,7.4778-0.3273
		c4.9588,0.2813,9.7073,1.7635,14.0333,3.8494c6.5803,3.3311,12.1589,8.2302,16.3895,14.0485
		c-0.0408-0.5164-0.0813-1.0266-0.1207-1.5229c-0.2834-3.571-0.5292-6.6554-0.5748-9.0262
		c-0.2101-10.8359,6.4711-24.8703,13.5447-39.7292c5.8952-12.3841,11.9916-25.1895,12.7458-34.0809
		c0.8029-9.4642,0.3093-13.4218-0.0099-14.856c-0.0803-0.0604-0.1493-0.1352-0.226-0.2003
		c-4.489,1.4575-8.9825,2.2829-13.5378,3.1182c-6.5325,1.1973-13.287,2.4362-20.3884,5.9121
		c-24.0814,11.7924-22.8871,33.5456-22.8246,34.4664c0.1903,2.7851-1.9059,5.2143-4.69,5.4185
		c-0.1268,0.0099-0.2537,0.0149-0.3796,0.0149c-2.6225,0-4.8406-2.007-5.0498-4.6633c-0.0941-1.1953-1.9545-29.4483,28.481-44.3509
		c8.3582-4.0923,16.1484-5.5206,23.0219-6.7803c17.2169-3.1567,30.8151-5.6494,49.0835-47.4908
		c6.0003-13.743,9.1293-22.0942,8.4811-26.8585c-0.5015-3.6801-3.6255-6.2788-11.274-12.3207
		c-2.6142-2.0656-5.6995-4.5051-9.1892-7.4636c-0.0032-0.0028-0.0066-0.0053-0.0098-0.0082
		c-3.72-3.1541-7.9001-6.8985-12.4769-11.431c-29.4513-29.1678-22.004-68.9308-17.5548-92.6886
		c0.9504-5.0721,1.7805-9.4516,2.0367-12.6889c2.2794-28.8183-40.4893-31.1804-33.7798-80.7759
		c0.3756-2.7772,3.2826-4.4838,6.028-3.8951c2.7394,0.5887,4.527,3.2966,3.8951,6.027
		c-9.9713,43.0767,36.2595,36.6856,33.972,79.4755c-0.2014,3.7657-1.1745,8.3775-2.1765,13.7256
		c-4.3431,23.1879-10.9064,58.2296,14.7212,83.6089c2.1259,2.1053,4.1494,4.0227,6.0754,5.7834
		c4.3738-15.8715,13.7843-55.6636,14.1257-105.2507c0.153-22.2051-1.5568-48.1483-7.1023-75.7083
		c9.428,3.6111,19.954,3.1101,29.9135,2.2781l0.6998-0.3539C745.6659,256.5635,742.8456,255.5754,742.0729,254.5883z
		 M195.5844,572.326c-3.034,0.3063-5.7418-1.9049-6.0482-4.9389s1.9049-5.7418,4.9389-6.0482
		c3.034-0.3063,5.7418,1.905,6.0481,4.9389C200.8296,569.3119,198.6184,572.0197,195.5844,572.326z M213.0184,589.881
		c-4.723,0.4768-8.9383-2.9653-9.4151-7.6884c-0.4768-4.7231,2.9654-8.9383,7.6884-9.4152c4.723-0.4768,8.9383,2.9654,9.4151,7.6884
		C221.1836,585.1888,217.7415,589.4042,213.0184,589.881z M225.1689,604.1411c-3.034,0.3063-5.7418-1.9048-6.0482-4.9389
		c-0.3063-3.0339,1.905-5.7418,4.9389-6.0481c3.034-0.3063,5.7418,1.9049,6.0481,4.9389
		C230.414,601.127,228.2029,603.8348,225.1689,604.1411z M670.2657,564.8129c3.0089-0.496,5.85,1.5411,6.3459,4.5499
		c0.496,3.0088-1.5412,5.85-4.55,6.3459c-3.0089,0.4959-5.8499-1.5411-6.3459-4.55
		C665.2199,568.15,667.2569,565.3089,670.2657,564.8129z M653.2627,575.3007c4.6838-0.772,9.1067,2.3991,9.8788,7.0829
		c0.7721,4.6838-2.399,9.1067-7.0828,9.8787c-4.6838,0.772-9.1067-2.3991-9.8788-7.0829
		C645.4078,580.4955,648.5789,576.0727,653.2627,575.3007z M640.3683,596.3341c3.0088-0.4959,5.85,1.5411,6.3459,4.5499
		c0.4959,3.0089-1.5411,5.85-4.5499,6.3459c-3.0088,0.4959-5.8501-1.5411-6.3459-4.5499
		C635.3223,599.6712,637.3595,596.8301,640.3683,596.3341z M631.3546,277.9882c1.924,4.9539-0.532,10.5297-5.4859,12.4537
		c-4.9539,1.9242-10.5297-0.532-12.4537-5.4859c-1.9243-4.9539,0.532-10.5296,5.4859-12.4537
		C623.8547,270.5782,629.4305,273.0343,631.3546,277.9882z M617.7083,439.3847c-1.4979-0.7506-2.8812-1.6385-4.1454-2.6385
		c0.1309,0.3402,0.2574,0.6833,0.3739,1.0325c4.1821,12.5331-12.1552,39.1536-12.1552,39.1536s-29.0492-11.4761-33.2312-24.0091
		c-0.9636-2.8878-1.3391-5.8286-1.2032-8.6973c-8.5097,10.3295-34.6428,16.5569-34.6428,16.5569s-10.1214-23.4416-7.6768-36.6614
		c7.9509,7.2954,17.9104,13.1101,29.3544,16.5698c7.5128,2.2712,15.0627,3.3498,22.3759,3.3498
		c27.2169,0,51.2211-14.9209,58.4431-38.8099c0.9541-3.1558,1.5589-6.3438,1.8701-9.5348c0.6985,0.2707,1.3915,0.5708,2.0748,0.9133
		c11.8121,5.9199,19.0455,36.3045,19.0455,36.3045S629.5204,445.3046,617.7083,439.3847z M653.3176,470.3404
		c-1.3591,3.4991-5.2974,5.2339-8.7966,3.8748c-3.4991-1.3591-5.2339-5.2974-3.8748-8.7965s5.2973-5.2339,8.7965-3.8749
		C652.9418,462.903,654.6767,466.8412,653.3176,470.3404z M637.0098,484.8445c-1.9241,4.9539-7.4999,7.41-12.4539,5.4859
		c-4.9539-1.9241-7.4099-7.4998-5.4858-12.4538c1.9243-4.9539,7.4998-7.41,12.4537-5.4859
		C636.4777,474.3148,638.934,479.8906,637.0098,484.8445z M560.8217,565.419c2.8752,3.9194,3.0616,8.7059,0.4377,11.6908
		c-1.5518,1.7656-4.3529,2.9685-7.9777,1.8116c-0.3665,3.1613-1.7567,5.4988-3.9814,6.5826
		c-0.8704,0.4234-1.8193,0.631-2.8108,0.631c-2.1846,0.0008-4.577-1.0084-6.7972-2.9348l-0.16-0.1592
		c-2.7561-3.1329-4.5309-8.7148-5.3768-16.9105c-1.4818,10.0269-3.3622,13.2034-4.8125,14.623
		c-2.1246,2.9307-5.1633,4.5881-8.0812,4.5889c-1.0005,0-1.986-0.1953-2.9164-0.5998c-2.1553-0.9386-4.1577-3.2375-4.1622-7.0428
		c-3.1225,0.6178-5.7727,0.0082-7.4842-1.7797c-2.1455-2.2407-2.4228-5.9237-0.7421-9.8521l0.1026-0.2018
		c2.1173-3.5426,6.8097-6.9033,14.2122-10.1786c-4.1045,0.687-7.1195,0.9484-9.36,0.9484c-3.1042,0-4.7354-0.4963-5.7708-1.0362
		c-4.6257-1.4933-7.5799-5.2642-7.2003-9.2212c0.2244-2.3391,1.7897-4.9556,5.406-6.1387
		c-1.5543-2.7773-1.7961-5.4857-0.6273-7.6672c1.4649-2.7338,4.8781-4.1376,9.1374-3.7585l0.2228,0.0353
		c4.0252,0.9155,8.6758,4.3371,14.0861,10.364c-4.5961-8.8059-4.941-12.4368-4.6085-14.4211
		c-0.0143-4.8604,2.6559-8.8372,6.535-9.7028c2.2911-0.5111,5.2666,0.1658,7.5121,3.2368c2.1591-2.3375,4.6627-3.4017,7.0953-2.9717
		c3.0538,0.5456,5.448,3.3582,6.4054,7.5228l0.0357,0.2232c0.3769,4.1118-1.4352,9.5939-5.4887,16.6052
		c6.9501-7.0994,10.2944-8.5516,12.2834-8.8502c4.6141-1.5195,9.2249-0.215,11.2505,3.2064
		c1.1975,2.0224,1.4744,5.0589-0.7498,8.1464c2.8916,1.3275,4.683,3.3729,5.0245,5.8245c0.4274,3.0718-1.5043,6.2199-5.1672,8.4212
		l-0.2014,0.1034c-1.8736,0.8065-4.2284,1.211-7.0863,1.211c-2.9299,0-6.4096-0.4409-10.4228-1.2932
		C557.5001,560.8873,559.9207,563.6195,560.8217,565.419z M362.9366,565.419c2.8753,3.9194,3.0616,8.7059,0.4377,11.6908
		c-1.5519,1.7656-4.353,2.9685-7.9778,1.8116c-0.3663,3.1613-1.7567,5.4988-3.9813,6.5826c-0.8705,0.4234-1.8194,0.631-2.8109,0.631
		c-2.1844,0.0008-4.5769-1.0084-6.7971-2.9348l-0.16-0.1592c-2.7561-3.1329-4.5309-8.7148-5.3767-16.9105
		c-1.482,10.0269-3.3623,13.2034-4.8126,14.623c-2.1246,2.9307-5.1631,4.5881-8.0811,4.5889c-1.0005,0-1.9859-0.1953-2.9163-0.5998
		c-2.1553-0.9386-4.1577-3.2375-4.1622-7.0428c-3.1227,0.6178-5.7727,0.0082-7.4842-1.7797
		c-2.1455-2.2407-2.4228-5.9237-0.7421-9.8521l0.1026-0.2018c2.1173-3.5426,6.8096-6.9033,14.2121-10.1786
		c-4.1044,0.687-7.1194,0.9484-9.3599,0.9484c-3.1042,0-4.7353-0.4963-5.7707-1.0362c-4.6258-1.4933-7.5798-5.2642-7.2003-9.2212
		c0.2244-2.3391,1.7898-4.9556,5.4059-6.1387c-1.5543-2.7773-1.796-5.4857-0.6272-7.6672c1.4649-2.7338,4.878-4.1376,9.1375-3.7585
		l0.2227,0.0353c4.0251,0.9155,8.6758,4.3371,14.0861,10.364c-4.5962-8.8059-4.9409-12.4368-4.6085-14.4211
		c-0.0143-4.8604,2.6559-8.8372,6.535-9.7028c2.2912-0.5111,5.2665,0.1658,7.5122,3.2368c2.159-2.3375,4.6627-3.4017,7.0953-2.9717
		c3.0538,0.5456,5.4478,3.3582,6.4053,7.5228l0.0357,0.2232c0.377,4.1118-1.4352,9.5939-5.4887,16.6052
		c6.9501-7.0994,10.2946-8.5516,12.2834-8.8502c4.6143-1.5195,9.2249-0.215,11.2506,3.2064
		c1.1974,2.0224,1.4744,5.0589-0.7498,8.1464c2.8917,1.3275,4.6832,3.3729,5.0245,5.8245c0.4274,3.0718-1.5043,6.2199-5.1673,8.4212
		l-0.2014,0.1034c-1.8735,0.8065-4.2282,1.211-7.0863,1.211c-2.9298,0-6.4096-0.4409-10.4227-1.2932
		C359.6151,560.8873,362.0356,563.6195,362.9366,565.419z M256.0424,437.3271c-11.812,5.9199-40.483-6.4705-40.483-6.4705
		s7.2334-30.3846,19.0454-36.3045c0.6833-0.3425,1.3764-0.6426,2.0748-0.9133c0.3113,3.1911,0.9161,6.379,1.8701,9.5348
		c7.222,23.889,31.2265,38.8099,58.4432,38.8099c7.3131,0,14.863-1.0786,22.3758-3.3498
		c11.4441-3.4597,21.4035-9.2744,29.3544-16.5698c2.4446,13.22-7.6766,36.6614-7.6766,36.6614s-26.1332-6.2274-34.6429-16.5569
		c0.1358,2.8688-0.2396,5.8095-1.2032,8.6973c-4.1821,12.5331-33.2312,24.0092-33.2312,24.0092s-16.3372-26.6204-12.1551-39.1536
		c0.1165-0.3492,0.2428-0.6923,0.3738-1.0326C258.9238,435.6887,257.5403,436.5764,256.0424,437.3271z M249.1948,489.3516
		c-4.9539,1.9241-10.5296-0.532-12.4538-5.4859c-1.9241-4.9539,0.532-10.5296,5.4859-12.4538
		c4.9539-1.9241,10.5296,0.532,12.4538,5.4859C256.6048,481.8517,254.1487,487.4275,249.1948,489.3516z M229.2298,473.2365
		c-3.4991,1.3591-7.4375-0.3758-8.7966-3.8749c-1.3591-3.4991,0.3758-7.4375,3.8749-8.7965
		c3.4991-1.3591,7.4375,0.3758,8.7965,3.8749C234.4638,467.9391,232.7289,471.8775,229.2298,473.2365z M263.9934,302.1318
		c0,0,30.3847,7.2334,36.3046,19.0455c0.7403,1.477,1.3133,2.994,1.7261,4.5296c0.2012-1.095,0.4761-2.1893,0.8386-3.2758
		c4.1821-12.5331,33.2311-24.0091,33.2311-24.0091s16.3372,26.6205,12.1552,39.1535c-0.0428,0.1281-0.0912,0.2526-0.1371,0.3787
		c-10.7439-7.9537-24.6614-12.426-39.5478-12.425c-7.3131,0.0005-14.863,1.0786-22.3758,3.3498
		c-10.7257,3.2425-20.1461,8.5553-27.8336,15.2143c-0.2878-0.4836-0.5757-0.9673-0.8319-1.4784
		C251.6031,330.8028,263.9934,302.1318,263.9934,302.1318z M255.4595,282.1556c-1.9241,4.9539-7.4998,7.41-12.4538,5.4859
		c-4.9539-1.9242-7.41-7.4999-5.4859-12.4538c1.9241-4.9539,7.4998-7.41,12.4538-5.4859
		C254.9275,271.626,257.3836,277.2017,255.4595,282.1556z M263.9556,263.423c1.9707-5.0739,7.6817-7.5896,12.7556-5.6188
		c5.074,1.9707,7.5897,7.6816,5.6189,12.7556c-1.9708,5.0739-7.6816,7.5896-12.7556,5.6189
		C264.5005,274.2079,261.9848,268.497,263.9556,263.423z M292.2242,258.5037c2.264-5.8291,8.8248-8.7191,14.6538-6.455
		c5.8291,2.2641,8.7191,8.8248,6.455,14.6539c-2.264,5.8291-8.8248,8.7191-14.6538,6.4551
		C292.8501,270.8935,289.9601,264.3328,292.2242,258.5037z M321.1035,263.8882c2.0555-5.2922,8.0121-7.9161,13.3043-5.8606
		c5.2923,2.0555,7.9161,8.0121,5.8606,13.3043s-8.0121,7.9161-13.3043,5.8606C321.6718,275.137,319.0479,269.1804,321.1035,263.8882
		z M525.8242,238.6184c-33.2534,2.1781-17.3145,29.1977-62.9972,45.8834c-45.6854,16.6882-94.1206-15.7867-110.6891-38.9073
		c-5.7194-7.9813,51.647-10.744,71.7773,6.4498c36.8604,31.4837,36.035,15.1605,59.2896-11.8888
		C505.9885,213.6545,559.081,236.4403,525.8242,238.6184z M547.7709,266.6887c2.0555,5.2922-0.5683,11.2488-5.8605,13.3043
		c-5.2922,2.0555-11.2488-0.5683-13.3043-5.8606c-2.0555-5.2923,0.5682-11.2488,5.8605-13.3043
		C539.7587,258.7726,545.7154,261.3964,547.7709,266.6887z M515.9056,290.1004c-4.495,1.7459-9.5545-0.4828-11.3003-4.9779
		c-1.7459-4.4951,0.4827-9.5544,4.9779-11.3004c4.495-1.7459,9.5544,0.4828,11.3003,4.9779
		C522.6294,283.2951,520.4008,288.3545,515.9056,290.1004z M492.6003,302.7609c-3.8136,1.4812-8.1058-0.4095-9.5869-4.2231
		c-1.4812-3.8135,0.4095-8.1057,4.2229-9.5869c3.8136-1.4812,8.1057,0.4095,9.5869,4.223
		C498.3044,296.9875,496.4136,301.2797,492.6003,302.7609z M457.7436,378.3069c0.4306,6.3697,1.3306,12.6906,2.763,18.8926
		c1.5063,6.1823,3.0039,12.352,4.9261,18.4448l0.6584,2.3054c0.2067,0.7733,0.4448,1.5369,0.7186,2.2892
		c0.5135,1.5165,1.0558,3.0236,1.5463,4.5542c0.2516,0.7629,0.4751,1.5377,0.7504,2.2932l0.8531,2.258
		c0.58,1.5017,1.1244,3.0229,1.6606,4.5527c0.5197,1.5376,1.2231,2.994,1.79,4.5195l1.77,4.5603
		c1.2492,3.0159,2.5549,6.0193,3.6874,9.1549l0.0069,0.0188c0.0535,0.1493,0.0123,0.3227-0.1162,0.4308
		c-0.1651,0.1389-0.4116,0.1176-0.5503-0.0475c-2.1364-2.5401-4.1411-5.1897-6.1266-7.868
		c-1.811-2.7763-3.6979-5.5364-5.3636-8.4246c-0.82-1.4511-1.6319-2.911-2.4078-4.3903l-1.1814-2.2134
		c-0.3852-0.7426-0.7203-1.5089-1.0833-2.2634c-1.3953-3.043-2.7839-6.0983-3.9326-9.2598
		c-2.4529-6.2619-4.0333-12.8623-5.1243-19.5092c-0.4148-3.3531-0.8828-6.687-1.0511-10.058
		c-0.3273-3.3505-0.3097-6.7282-0.3722-10.0846c0.0192-6.7267,0.6134-13.4395,1.7571-20.0425
		c1.1871-6.5969,2.9584-13.0729,5.2941-19.3185c2.3665-6.2358,5.2916-12.2335,8.6956-17.9191
		c3.4611-5.6526,7.3213-11.0509,12.0003-15.7596c0.1374-0.1373,0.3604-0.1533,0.5153-0.0289
		c0.166,0.1335,0.1925,0.3762,0.0591,0.5423l-0.0193,0.024c-8.1479,10.1425-13.9138,22.0642-17.5911,34.3773
		c-1.8596,6.1636-3.1498,12.4781-3.8721,18.8381C457.6486,365.531,457.4242,371.9346,457.7436,378.3069z M415.347,357.118
		c-0.7224-6.36-2.0126-12.6745-3.8721-18.8381c-3.6773-12.313-9.4432-24.2348-17.5912-34.3773l-0.0193-0.024
		c-0.1335-0.1661-0.1069-0.4088,0.0591-0.5423c0.1549-0.1244,0.3778-0.1084,0.5151,0.0289
		c4.6789,4.7088,8.5393,10.1071,12.0004,15.7596c3.404,5.6856,6.3292,11.6833,8.6956,17.919
		c2.3358,6.2456,4.1069,12.7216,5.2942,19.3185c1.1437,6.6029,1.7379,13.3156,1.7571,20.0424
		c-0.0624,3.3564-0.0449,6.7341-0.3722,10.0846c-0.1682,3.3711-0.6363,6.705-1.0511,10.058
		c-1.091,6.647-2.6713,13.2473-5.1242,19.5093c-1.1487,3.1614-2.5373,6.2167-3.9326,9.2597
		c-0.363,0.7545-0.6982,1.5209-1.0834,2.2634l-1.1813,2.2135c-0.776,1.4792-1.5879,2.9391-2.4079,4.3902
		c-1.6657,2.8882-3.5525,5.6483-5.3635,8.4246c-1.9857,2.6783-3.9904,5.3279-6.1267,7.868
		c-0.1388,0.1651-0.3852,0.1863-0.5503,0.0475c-0.1285-0.1082-0.1699-0.2815-0.1163-0.4309l0.0069-0.0188
		c1.1325-3.1356,2.4382-6.139,3.6874-9.1549l1.7701-4.5602c0.5668-1.5256,1.2701-2.9819,1.7899-4.5196
		c0.5361-1.5298,1.0805-3.0509,1.6607-4.5527l0.8531-2.258c0.2751-0.7555,0.4988-1.5303,0.7504-2.2932
		c0.4905-1.5306,1.0327-3.0378,1.5462-4.5542c0.2739-0.7523,0.5121-1.5158,0.7186-2.2892l0.6584-2.3053
		c1.9223-6.0929,3.4199-12.2625,4.9263-18.4449c1.4323-6.202,2.3323-12.5229,2.7629-18.8926
		C416.3268,369.877,416.1023,363.4733,415.347,357.118z M417.0719,306.0535c2.4636-4.5252,12.47-8.2446,17.3493,0
		c4.8797-8.2446,14.8862-4.5252,17.3496,0c7.599,13.3088-17.3496,30.8745-17.3496,30.8745S409.4726,319.3623,417.0719,306.0535z
		 M385.8611,295.7374c-1.4812,3.8135-5.7734,5.7042-9.5869,4.223s-5.7042-5.7734-4.2231-9.5869
		c1.4812-3.8135,5.7734-5.7042,9.5869-4.2231S387.3423,291.9239,385.8611,295.7374z M359.2913,271.0217
		c4.4951,1.7459,6.7238,6.8053,4.9778,11.3004c-1.7459,4.4951-6.8053,6.7237-11.3004,4.9778
		c-4.4951-1.7459-6.7237-6.8052-4.9778-11.3004C349.7368,271.5044,354.7962,269.2758,359.2913,271.0217z M287.9506,334.7078
		c6.7791-2.0494,13.7147-3.0888,20.6168-3.0892h0.002c25.2319,0,46.3739,13.8575,52.6091,34.4826
		c8.1762,27.0453-11.3701,56.9685-43.5719,66.7036c-6.7806,2.0498-13.7161,3.0892-20.6137,3.0892
		c-25.235,0-46.379-13.8575-52.6143-34.4825C236.2025,374.366,255.7488,344.4429,287.9506,334.7078z M352.1899,471.7535
		c4.4951-1.7459,9.5545,0.4827,11.3004,4.9778c1.7459,4.4951-0.4827,9.5544-4.9778,11.3004
		c-4.4951,1.7459-9.5544-0.4827-11.3004-4.9778C345.4662,478.5588,347.6949,473.4995,352.1899,471.7535z M333.629,501.0258
		c-5.2922,2.0555-11.2488-0.5683-13.3043-5.8605c-2.0555-5.2922,0.5683-11.2488,5.8606-13.3043
		c5.2923-2.0555,11.2488,0.5683,13.3043,5.8605C341.5451,493.0137,338.9213,498.9702,333.629,501.0258z M297.9004,485.8959
		c5.829-2.264,12.3898,0.626,14.6538,6.455c2.2641,5.8291-0.6259,12.3899-6.455,14.6539c-5.829,2.264-12.3898-0.626-14.6538-6.4551
		C289.1814,494.7207,292.0714,488.1599,297.9004,485.8959z M371.2725,468.6799c-1.4812-3.8135,0.4095-8.1057,4.223-9.5869
		c3.8135-1.4812,8.1057,0.4095,9.5869,4.223c1.4812,3.8135-0.4096,8.1057-4.2231,9.5869
		C377.0458,474.3842,372.7536,472.4934,371.2725,468.6799z M358.5873,425.5823c-3.164-1.1359-5.9376-2.8731-8.2466-5.032
		c15.5807-15.2245,22.6706-36.3516,16.6667-56.2112c-3.2218-10.6573-9.7899-19.5234-18.4872-26.0827
		c1.4435-1.2332,3.0473-2.3226,4.8209-3.2115c11.812-5.9198,40.4831,6.4705,40.4831,6.4705s-7.2335,30.3847-19.0455,36.3046
		c-1.3842,0.6937-2.8044,1.2349-4.2412,1.6407c1.4114,0.2328,2.8218,0.5887,4.2162,1.0892
		c12.4354,4.4642,23.2519,33.7654,23.2519,33.7654S371.0228,430.0466,358.5873,425.5823z M391.7406,499.7365
		c5.8437-14.0809,41.8899-70.6524,42.2527-71.2223l0.4282-0.671l0.4282,0.671c0.3628,0.5699,36.41,57.1414,42.2527,71.2223
		c4.1231,9.937,10.1679,36.6716,1.2696,51.3839c-3.575,5.912-9.157,9.2472-16.5905,9.9152
		c-1.4044,0.1259-2.7613,0.1893-4.0695,0.1893c-7.042,0-12.6874-1.8237-16.8204-5.4423c-3.9992-3.4997-5.6425-7.8517-6.3164-10.6824
		c-0.7632,2.8406-2.5531,7.2263-6.6931,10.7358c-4.9973,4.2351-12.0035,5.9825-20.8196,5.1995
		c-7.4315-0.662-13.0125-3.9932-16.5885-9.9003C381.5686,536.423,387.6155,509.6775,391.7406,499.7365z M475.7451,416.3729
		c0,0,10.8164-29.3011,23.2518-33.7654c1.3945-0.5006,2.8049-0.8564,4.2162-1.0892c-1.4369-0.4058-2.8569-0.947-4.2411-1.6407
		c-11.812-5.9198-19.0455-36.3045-19.0455-36.3045s28.6711-12.3904,40.4831-6.4705c1.7736,0.889,3.3777,1.9784,4.8214,3.2118
		c-8.6974,6.5591-15.2657,15.4249-18.4876,26.0823c-6.0038,19.8596,1.0859,40.9868,16.6667,56.2112
		c-2.309,2.1589-5.0826,3.8962-8.2467,5.0321C502.7281,432.1042,475.7451,416.3729,475.7451,416.3729z M526.5388,484.0326
		c-1.746,4.4951-6.8054,6.7238-11.3005,4.9779c-4.495-1.7459-6.7238-6.8053-4.9778-11.3004
		c1.746-4.4951,6.8053-6.7237,11.3004-4.9778C526.0559,474.4782,528.2847,479.5375,526.5388,484.0326z M488.6685,464.2948
		c1.4812-3.8135,5.7734-5.7042,9.5869-4.223c3.8136,1.4812,5.7042,5.7734,4.2231,9.5869c-1.4811,3.8135-5.7734,5.7043-9.5868,4.2231
		C489.078,472.4005,487.1873,468.1083,488.6685,464.2948z M534.2612,488.7002c2.0556-5.2922,8.0121-7.916,13.3044-5.8605
		c5.2922,2.0555,7.9161,8.0121,5.8605,13.3043c-2.0556,5.2923-8.012,7.9161-13.3044,5.8606
		C534.8297,499.9491,532.2057,493.9925,534.2612,488.7002z M567.6516,507.9836c-5.829-2.264-8.7191-8.8248-6.4551-14.6539
		c2.2641-5.829,8.8249-8.7191,14.6539-6.4551c5.829,2.2641,8.7191,8.8248,6.4551,14.6539
		C580.0414,507.3576,573.4807,510.2476,567.6516,507.9836z M629.3721,403.469c-6.2352,20.6251-27.3793,34.4826-52.6142,34.4826
		c-6.8976,0-13.833-1.0394-20.6136-3.0893c-15.769-4.7672-28.978-14.4488-37.1936-27.2614
		c-8.0208-12.5088-10.286-26.5163-6.3783-39.4422c6.2352-20.6251,27.3793-34.4825,52.6142-34.4825
		c6.8977,0,13.8331,1.0394,20.6136,3.0892c15.7691,4.7672,28.978,14.4488,37.1936,27.2614
		C631.0146,376.5356,633.2798,390.5432,629.3721,403.469z M587.5625,330.9366c-7.5129-2.2712-15.0627-3.3498-22.3759-3.3498
		c-14.8862,0-28.8036,4.4723-39.5475,12.4255c-0.046-0.1262-0.0945-0.2509-0.1373-0.3792
		c-4.1819-12.5331,12.1553-39.1536,12.1553-39.1536s29.049,11.4761,33.231,24.0092c0.3627,1.0865,0.6376,2.1808,0.8387,3.2758
		c0.4128-1.5356,0.986-3.0526,1.7261-4.5297c5.92-11.812,36.3047-19.0455,36.3047-19.0455s12.3903,28.6711,6.4704,40.4831
		c-0.256,0.511-0.544,0.9948-0.8319,1.4784C607.7086,339.4918,598.2882,334.1791,587.5625,330.9366z M561.9964,254.8491
		c5.829-2.264,12.3898,0.626,14.6537,6.455c2.2642,5.8291-0.6259,12.3898-6.4549,14.6539c-5.8291,2.264-12.3898-0.626-14.6539-6.455
		C553.2772,263.6739,556.1673,257.1132,561.9964,254.8491z M592.1631,260.6046c5.074-1.9707,10.7848,0.545,12.7557,5.6189
		c1.9707,5.074-0.5449,10.7849-5.619,12.7556c-5.0738,1.9707-10.7848-0.5449-12.7556-5.6189
		C584.5735,268.2863,587.0892,262.5754,592.1631,260.6046z M647.5311,224.6211c-19.0171-2.4414-41.723-29.7002-52.1309-28.4219
		c-18.0313,2.2127-5.3585-19.7639,6.1466-11.3884c24.3439,17.727,32.9697,28.0751,51.6975,24.455
		c7.8218-1.5127,15.2076-6.1185,21.1572-10.4856c1.6157-1.0868,3.5468-2.5642,6.0699-4.4977
		c0.8802-0.6745,1.8318-1.4038,2.8607-2.1859c0.8792-0.6683,1.8566-1.3672,2.8979-2.0887c1.2465-0.6052,1.9303-0.4349,1.9109,0.937
		C688.0495,197.606,666.5471,227.0612,647.5311,224.6211z M645.0334,114.9449c-1.5131-1.7253-3.0417-3.4229-4.5813-5.1008
		c0.3052-0.0139,0.6061-0.0353,0.9189-0.0353c9.3762,0,19.2402,6.9055,29.3181,20.5247
		c8.5648,11.5736,8.9263,15.6024,8.6842,16.7972c-0.2034,1.0038-1.7843,2.002-4.3638,3.5267
		c-0.7314,0.4324-1.5165,0.9004-2.3223,1.4125c-0.0619-0.0985-0.1208-0.1975-0.1828-0.296
		c-0.2549,0.2693-0.5065,0.0927-0.6955-0.7617c-0.013-0.0587-0.0662-0.2719-0.1677-0.6043
		c-2.4407-3.8305-4.9906-7.6433-7.6658-11.4318c-3.8304-3.2478-9.4094-5.9722-17.4672-6.3171
		c-18.0807-0.7747-23.6257,12.12-25.9484,24.2084c-0.3833,1.999-1.9819,1.6764-2.7273-0.2225
		c-5.6995-14.5197,3.8674-31.4348,21.7517-38.4719c2.3616-0.9294,4.6619-1.4307,6.8802-1.5709
		C645.9872,116.0497,645.5163,115.4957,645.0334,114.9449z M633.658,161.099c-3.3644,13.705,12.1135,9.2629,11.4957,14.5994
		c-0.6169,5.3361-16.0384,1.2528-23.1035-1.7303c-7.064-2.9812,4.1133-16.804,6.6078-26.3159
		c2.4946-9.5126,15.7539-12.5334,26.2073-9.7394c11.3699,3.0395,8.605,10.9952-0.5996,5.7454
		C645.0634,138.4068,637.0235,147.3936,633.658,161.099z M656.1332,154.8327c1.1844,3.898-1.077,11.3724-3.4548,9.3702
		c-2.3794-2.002,1.29-11.8988-6.5084-13.2339c-7.7977-1.3347-4.3202-1.0465-0.2349-2.5673
		C649.6721,147.0117,654.9479,150.9376,656.1332,154.8327z M654.1094,178.8747c9.9987-6.9758,7.575,23.4644-4.2524,25.0148
		c-15.7511,2.064-32.1826-9.5054-40.7854-21.8791c-6.914-9.9445-4.3157-15.2155,0.2654-10.3356
		C625.2431,188.6196,644.1116,185.8502,654.1094,178.8747z M660.188,168.5217c-7.6978,7.4235-21.3606-0.0721-21.371-4.9306
		c-0.0101-4.8593-0.9394-10.2656,3.5983-9.7595c4.5388,0.505,7.5494,5.7669,5.8898,7.8273
		c-1.6602,2.0594,0.2037,11.3292,6.446,4.9346c6.2437-6.3935,5.6177-15.6652-0.8937-17.5336
		c-6.5134-1.8677-0.5473-4.5131,2.9233-2.6053c2.963,1.6304,8.0441,9.6028,6.5123,16.5563c-0.201,0.5579-0.3799,1.143-0.5405,1.7512
		C662.2111,166.0995,661.3801,167.3722,660.188,168.5217z M623.8951,121.6589c-22.05,14.0312-4.8699,46.1695-8.8237,48.9605
		c-3.955,2.7914-10.1636-10.8889-16.3597-27.654c-6.1964-16.7645,9.848-26.7494,30.2859-29.6497
		C636.9889,112.181,641.222,110.6347,623.8951,121.6589z M623.4968,107.2553c0.009-0.0737,0.0071-0.1453,0.0252-0.2203
		c0.0246-0.1017,0.0718-0.2029,0.1125-0.3044c0.0286-0.0712,0.0461-0.143,0.0823-0.2131c0.0573-0.1108,0.1372-0.2143,0.2131-0.3194
		c0.0406-0.0562,0.0701-0.1167,0.1158-0.1707c0.1281-0.1508,0.2766-0.2904,0.4426-0.4139c0.0042-0.0031,0.0069-0.0073,0.011-0.0103
		c0.2366-0.1741,0.4711-0.3608,0.7043-0.5543c0.0743-0.0616,0.1481-0.1267,0.2221-0.1902c0.1609-0.1379,0.3214-0.2789,0.481-0.4251
		c0.0814-0.0745,0.1627-0.15,0.2438-0.2265c0.1577-0.1489,0.3149-0.3016,0.4716-0.4575c0.074-0.0736,0.1481-0.1461,0.2218-0.221
		c0.1947-0.1982,0.3889-0.4015,0.5825-0.6093c0.0316-0.0338,0.0634-0.066,0.0948-0.1001c0.226-0.2443,0.4512-0.4954,0.6762-0.7508
		c0.0689-0.0782,0.1378-0.1586,0.2067-0.2377c0.159-0.1827,0.3181-0.367,0.477-0.5542c0.0813-0.0958,0.1627-0.1924,0.244-0.2893
		c0.1506-0.1794,0.3015-0.3603,0.4521-0.5426c0.08-0.0969,0.16-0.1933,0.2401-0.2909c0.171-0.2084,0.3425-0.4187,0.5141-0.63
		c0.0386-0.0476,0.0771-0.0942,0.1158-0.1419c-0.0001,0-0.0001-0.0001-0.0002-0.0003c4.3917-5.4167,9.0106-11.5653,15.8749-11.5653
		c5.1729,0,11.6222,3.4947,20.2072,13.4271c26.7377,30.9363,34.6914,29.978,46.8714,45.7745
		c10.5103,13.6336-11.6339,26.5715-26.6728,36.5302c-0.0234,0.0155-0.0468,0.0311-0.0703,0.0466
		c-0.7712,0.511-1.5239,1.0143-2.252,1.5094c-0.0171,0.0115-0.0339,0.0232-0.0509,0.0347
		c-0.7303,0.4969-1.4367,0.9859-2.1122,1.4659c-0.012,0.0085-0.0236,0.0171-0.0356,0.0255
		c-0.6807,0.4843-1.332,0.9602-1.9455,1.4265c-0.5211,0.3961-1.0158,0.7738-1.4982,1.1428
		c-0.1373,0.1051-0.2659,0.2034-0.4001,0.3061c-0.4327,0.3312-0.851,0.6516-1.2527,0.9594
		c-0.3165,0.2426-0.6176,0.4729-0.9155,0.7006c-0.1149,0.088-0.2343,0.1794-0.3464,0.265
		c-0.3847,0.2937-0.7517,0.5727-1.1053,0.8401c-0.0897,0.0679-0.1736,0.1303-0.2614,0.1965
		c-0.2581,0.1945-0.5079,0.3815-0.7495,0.561c-0.1113,0.0828-0.22,0.1628-0.3278,0.2423c-0.2294,0.169-0.4498,0.3293-0.6641,0.4837
		c-0.0847,0.061-0.1721,0.1248-0.2545,0.1835c-0.2861,0.2041-0.5606,0.3963-0.8198,0.5723
		c-0.0354,0.024-0.0671,0.0439-0.1021,0.0674c-0.2201,0.1482-0.4301,0.2854-0.6311,0.4123
		c-0.0735,0.0463-0.1437,0.089-0.2147,0.1324c-0.1624,0.0996-0.3182,0.1914-0.468,0.2759
		c-0.0646,0.0364-0.1301,0.0738-0.1924,0.1075c-0.1771,0.0956-0.3455,0.1801-0.5048,0.2526
		c-0.0223,0.0102-0.0472,0.0238-0.0692,0.0334c-0.1777,0.0784-0.3422,0.1391-0.4985,0.1876
		c-0.0437,0.0136-0.0839,0.0217-0.126,0.033c-0.1107,0.0295-0.2164,0.0514-0.3163,0.0643
		c-0.0445,0.0058-0.0884,0.0105-0.1308,0.0129c-0.0663,0.004-0.1261-0.003-0.1875-0.0073
		c-0.0997-0.0068-0.1936-0.0242-0.2809-0.0527c-0.0469-0.0154-0.0936-0.031-0.1371-0.0525
		c-0.0864-0.043-0.1646-0.1021-0.2382-0.1701c-0.0303-0.0281-0.0641-0.0493-0.0924-0.0816
		c-0.0963-0.1101-0.1826-0.2411-0.2565-0.4017c-0.0094-0.0203-0.0159-0.0483-0.025-0.0696
		c-0.0623-0.1464-0.1171-0.3117-0.1641-0.4975c-0.0177-0.0697-0.0319-0.1497-0.0477-0.225
		c-0.0328-0.1576-0.0626-0.3246-0.0873-0.5071c-0.0128-0.094-0.0246-0.1912-0.0353-0.2918
		c-0.0212-0.1975-0.0382-0.4095-0.0522-0.6328c-0.0064-0.1016-0.014-0.1985-0.0192-0.3055
		c-0.014-0.2986-0.0233-0.6177-0.0281-0.9587c-0.0007-0.0446-0.0027-0.0826-0.0031-0.1279
		c-0.0043-0.3984-0.0026-0.8283,0.0026-1.2835c0.0015-0.1243,0.0043-0.2599,0.0064-0.3883
		c0.0056-0.3522,0.0124-0.7134,0.0217-1.0979c0.004-0.1681,0.0085-0.3409,0.0132-0.5153c0.011-0.4149,0.0228-0.8381,0.0361-1.2888
		c0.0065-0.2171,0.0124-0.4235,0.0192-0.6489c0.0151-0.503,0.0304-1.0117,0.0463-1.5569c0.0184-0.6344,0.0366-1.2948,0.0538-1.9872
		c0.004-0.1617,0.0072-0.3351,0.011-0.4999c0.0127-0.5434,0.0245-1.0988,0.0349-1.6772c0.0048-0.2724,0.0086-0.5533,0.0128-0.8337
		c0.0078-0.5164,0.0139-1.0437,0.0187-1.5868c0.0027-0.3038,0.005-0.6079,0.0066-0.9201c0.0031-0.5799,0.0031-1.1782,0.0018-1.7875
		c-0.0006-0.2926-0.0002-0.5768-0.002-0.8762c-0.0052-0.8959-0.0146-1.815-0.0315-2.7724
		c-0.0003-0.0181-0.0003-0.0344-0.0006-0.0525c-0.0001-0.0023,0.0001-0.0046,0-0.0069c-0.0088-0.4983,0.0003-0.9751,0.0176-1.4423
		c0.0049-0.1308,0.0116-0.2593,0.0184-0.3878c0.02-0.3775,0.0479-0.7456,0.0844-1.1031c0.0087-0.086,0.0148-0.1752,0.0245-0.2602
		c0.0488-0.4267,0.11-0.8382,0.1813-1.2374c0.0174-0.0974,0.0378-0.191,0.0565-0.2869c0.0618-0.3168,0.1303-0.6253,0.2057-0.9251
		c0.0242-0.0963,0.0473-0.1936,0.0728-0.2883c0.099-0.3662,0.2059-0.7227,0.3243-1.0643c0.016-0.0462,0.0343-0.0893,0.0507-0.1352
		c0.1071-0.3001,0.2221-0.5901,0.3433-0.8719c0.0369-0.086,0.0742-0.1712,0.1123-0.2553c0.1299-0.2869,0.2654-0.5663,0.409-0.8351
		c0.0142-0.0265,0.0271-0.0549,0.0414-0.0813c0.1602-0.2954,0.3298-0.5778,0.5051-0.8525c0.0417-0.0655,0.0848-0.129,0.1274-0.1934
		c0.1488-0.2249,0.302-0.4433,0.4601-0.655c0.0361-0.0484,0.0712-0.0983,0.1078-0.146c0.1936-0.2526,0.3931-0.4967,0.5987-0.7316
		c0.0305-0.0349,0.0623-0.0681,0.093-0.1028c0.1817-0.2039,0.3675-0.4013,0.557-0.5929c0.0445-0.0451,0.0888-0.0904,0.1337-0.1348
		c0.4438-0.4386,0.9064-0.8467,1.3819-1.2292c0.0396-0.032,0.0792-0.0634,0.119-0.0949c0.2354-0.1866,0.473-0.3689,0.7134-0.5446
		c0.0004-0.0002,0.0007-0.0005,0.0012-0.0009c0.2607-0.1904,0.524-0.3746,0.7888-0.5539c0.0094-0.0064,0.0189-0.0126,0.0283-0.019
		c0.2614-0.1765,0.524-0.3486,0.7872-0.5164l-0.0001-0.0001c7.8555-5.0049,16.137-6.4743-0.5846-29.0701
		c-13.4418-18.1651-24.7855-22.5808-33.3973-22.5808c-1.8634,0-3.5933,0.2117-5.1945,0.5306
		c-0.0011-0.0011-0.0022-0.0022-0.0033-0.0035c-0.032,0.0064-0.0609,0.0151-0.0928,0.0216
		c-0.6022,0.1222-1.1848,0.2584-1.7483,0.4069c-0.0692,0.0182-0.1351,0.0374-0.2037,0.0559
		c-0.536,0.1448-1.0554,0.2968-1.5552,0.4555c-0.0365,0.0116-0.0741,0.0227-0.1105,0.0343c-0.5396,0.1731-1.055,0.3497-1.551,0.5273
		c-0.0419,0.015-0.0811,0.0294-0.1226,0.0442c-0.7933,0.2861-1.5319,0.5675-2.2094,0.8241
		c-0.0723,0.0275-0.1488,0.0565-0.2198,0.0831c-0.1517,0.0571-0.2938,0.1091-0.4393,0.1629
		c-0.3218,0.1191-0.6295,0.2292-0.921,0.3276c-0.0464,0.0156-0.0969,0.0343-0.1425,0.0493
		c-0.3203,0.1056-0.6152,0.1896-0.897,0.2599c-0.0699,0.0175-0.1379,0.0326-0.2056,0.0476
		c-0.2813,0.0623-0.5488,0.1104-0.7881,0.1234c-0.1589,0.0087-0.2821-0.0193-0.4144-0.0382
		c-0.0921-0.0131-0.1936-0.0171-0.2731-0.042c-0.0969-0.0305-0.1707-0.0805-0.2493-0.1267c-0.064-0.0374-0.1378-0.0669-0.19-0.1135
		c-0.0648-0.0577-0.1064-0.131-0.1536-0.2007c-0.0377-0.0557-0.0856-0.1047-0.1124-0.1666
		c-0.0338-0.0782-0.0447-0.1671-0.0618-0.2534c-0.0134-0.068-0.0375-0.1313-0.041-0.2029
		C623.4668,107.4489,623.485,107.3515,623.4968,107.2553z M616.8153,100.387c2.2789-0.1286,3.5054,0.8796,3.3987,2.3461
		c-0.7201,0.8433-1.2391,1.8134-1.5303,2.8397c-2.7663,3.0398-9.0481,7.515-14.5161,8.9791
		c-12.2361,3.2752-14.7077,25.2424-7.0352,39.2206c7.6732,13.9785-1.8819,37.1487-6.3935,18.2595
		c-4.5127-18.8896-19.3951-46.2779-17.3254-56.4693C575.2372,106.5807,599.069,101.3855,616.8153,100.387z M524.7687,81.3207
		c12.5193,3.1057,36.4769,4.9304,45.9359,19.2145c9.4607,14.2861-6.9097,20.917,3.2068,38.9237
		c7.6143,13.5564,16.5573,36.4452,7.3866,55.5621c1.3854,8.3058,9.9854,7.0441,24.5479,10.511
		c20.4396,4.8664,22.1611,38.6503,12.1494,21.8556c-10.011-16.7928-20.4521-1.2933-41.6409-20.7277
		c-0.6395-0.5865-1.2527-1.1876-1.8457-1.7996c-2.4311,2.5886-5.3391,5.0419-8.7972,7.314
		c-30.7822,20.2249-46.0408,7.986-30.7245-1.2746c16.6164-10.0451,24.5761-20.7419,27.0898-31.6318
		c-1.0778-6.3405-1.1103-12.7583-0.4305-18.7562c-1.1287-4.6463-2.9011-9.2803-5.0861-13.867
		C545.974,124.42,505.7013,76.5944,524.7687,81.3207z M522.528,107.8332c10.1451,5.1282,39.191,58.925,21.1948,85.145
		c-17.999,26.2207-76.8165,39.2787-82.6584,55.5888c-10.1239,28.2555-34.3216-6.9114-12.8544-17.6033
		c45.43-22.6194,67.763-27.5854,76.2509-57.9234C532.9462,142.6998,512.3839,102.7007,522.528,107.8332z M424.6286,122.353
		c-14.9504,9.6372-7.1977,28.233,11.2944,43.4708c18.4923,15.2363,23.2838-10.924,31.0031-6.0123
		c7.7195,4.9099-10.1021,24.5961-19.9719,32.7811c-9.8665,8.1852-22.6826-18.6636-35.3976-29.4734
		c-12.7157-10.8106-7.4084-32.6328,4.7118-45.9575C429.4521,102.6694,439.5781,112.7116,424.6286,122.353z M425.6571,138.1967
		c0.67-6.5539,10.6443-11.393,17.5055-10.2215c6.8647,1.175,16.6302,10.1133,11.7779,12.1197
		c-4.8533,2.0091-17.2779-10.8222-25.1707-0.3201C421.878,150.2761,424.9265,145.3627,425.6571,138.1967z M443.6115,160.0822
		c-7.4583-3.6275-16.4448-6.3096-12.2673-12.6235c4.1768-6.3162,14.5018-6.8126,16.417-2.82
		c1.9134,3.9926,17.5241,8.1922,12.3982-5.8091c-5.123-14.002-19.8086-20.029-27.5548-11.8251
		c-7.7461,8.2074-7.3302-2.5758-1.8032-6.265c6.0619-4.0426,30.7799-5.4031,36.3903,11.5161
		C472.804,149.1749,451.0688,163.709,443.6115,160.0822z M449.0551,101.9891c-1.034-0.2571-30.0865-6.5637-47.1073,23.5613
		c-14.7415,26.0889,0.8737,43.9339,17.668,56.4218c2.7778,2.0636,1.0847,4.1798-2.3857,3.856
		c-26.536-2.4773-45.3007-29.2687-42.6846-60.9236c2.7883-33.7363,45.1014-40.8258,68.3768-29.2264
		C448.6364,98.5262,453.5489,103.1082,449.0551,101.9891z M436.5879,200.3764c1.3155,7.926-24.315,6.8291-54.6663,3.401
		c-30.3504-3.4271-33.6331-34.578-22.7596-66.8986c4.2506-12.638,5.0529-20.0409,8.9679,13.7806
		C373.1152,193.7017,435.2723,192.4521,436.5879,200.3764z M433.9078,209.626c37.9053-10.76,47.8035-40.6674,44.6021-60.6434
		c-3.2012-19.9776,41.6568,6.4163,35.1681,25.0242c-8.6428,24.7804-38.6996,40.3448-64.1216,43.7586
		C429.1255,220.509,422.991,212.7255,433.9078,209.626z M368.7858,72.4694c67.4786-16.2485,71.9714-28.6989,105.323-34.8232
		c33.3525-6.1216,32.4061,51.7311,38.084,79.6449c7.3155,35.9647,7.9367,27.3794-34.6557,7.4629
		c-39.169-18.3133,10.5121-56.8666-62.599-44.894c-73.1101,11.9702-62.0502,50.7392-65.8983,59.4933
		c-1.323,3.0108-4.552,1.1854-5.0755-1.6206C340.137,117.2396,305.4903,87.7124,368.7858,72.4694z M315.6756,123.6652
		c6.1439,5.0799,12.7379,11.5217,17.8914,17.889c1.9519-0.6175,4.0812,0.6051,5.5135,3.6356
		c1.1594,2.4525,2.2712,6.2492,3.0391,10.5378c0.5507,1.7211,0.7953,3.3158,0.6796,4.7415
		c0.5019,4.7534,0.5017,9.7272-0.3549,13.9615c-4.1505,20.5034,27.6797,40.6163,54.8644,39.7776
		c27.1855-0.8397,55.5505,30.6233,23.2054,23.1181c-32.347-7.5034-85.4985-6.0824-99.5736-16.775
		c-1.4673-1.1147-2.6128-2.6561-3.4898-4.5306c-8.5041,10.5359-20.5172,19.3344-35.7171,20.9621
		c-30.0247,3.2159-28.8569-16.0912-47.8875-8.2308c-19.0324,7.8612,3.9082-19.2313,24.035-10.7688
		c20.5431,8.6374,24.7124,17.9011,36.1997-9.5821c3.2497-7.7746,13.5461-15.3006,22.5943-19.9258
		c0.3816-2.1754,0.8286-4.3953,1.3368-6.6474c-9.212,5.6972-19.131,11.6699-26.2192,17.4961
		c-15.7832,12.9746-8.9941-12.1808,6.2971-19.128c15.2906-6.9473,27.2153-26.7626,19.1059-36.9843
		c-3.8446-4.8471-6.2971-13.0831-6.4248-17.1084C310.662,122.6794,313.0057,121.4566,315.6756,123.6652z M256.9285,136.7822
		c-11.0106-1.2628-8.2498-9.5842,3.1578-5.154c10.4878,4.0738,19.6115,14.7103,15.6345,24.1633
		c-3.9768,9.4522-3.4639,27.8133-11.247,25.9711c-7.7851-1.8413-23.2327-7.8829-20.3499-12.7065
		c2.8823-4.8243,12.9499,8.3549,18.8712-5.1236C268.9158,150.453,267.9383,138.0423,256.9285,136.7822z M259.0193,147.8309
		c-7.347-3.6635-10.59,6.8291-13.8469,7.04c-3.2555,0.2119-0.3815-7.4,3.0867-9.9223c3.4672-2.5193,10.3617-2.5593,12.5903,0.8872
		C263.2849,149.6045,266.3655,151.494,259.0193,147.8309z M276.6015,168.4281c5.7601-11.4937,9.3489-25.6324-6.2079-36.0592
		c-17.963-12.0402-32.2626-0.6271-32.7623-0.2029c-2.1711,1.845-0.7496-2.0316,1.6072-5.1665
		c9.6007-12.7689,35.0397-20.3798,46.1453-2.4592c10.4203,16.8147,7.6231,36.7661-6.3683,45.3726
		C277.1856,171.0384,275.6483,170.3282,276.6015,168.4281z M253.0531,137.5718c4.106,0.5358,7.3924,6.3935,0.777,3.9608
		c-6.6143-2.4307-13.0379,4.9105-11.9063,14.0606c1.1301,9.1503,8.5839,2.5688,8.5118-0.1638
		c-0.0711-2.733,5.7868-5.2733,9.8897-2.9144c4.1027,2.357-0.1132,6.2923-3.2149,10.3345
		c-3.1015,4.0414-19.256,1.9196-20.9437-8.9791C234.4781,142.9719,248.5507,136.986,253.0531,137.5718z M276.5255,187.6372
		c6.9233-1.2601,5.7325,4.7225-6.3582,8.7737c-15.0443,5.0409-36.0988,4.6174-47.9079-6.7478
		c-8.8667-8.5345,8.4915-35.3797,12.3811-23.4448C238.5294,178.1522,252.4867,192.0141,276.5255,187.6372z M272.4199,183.2463
		c-1.5175-4.7465,33.2546-21.0015,23.8159-46.1943c-7.4179-19.7954-4.8755-15.9148,1.06-10.0757
		c15.1813,14.9321,22.1925,33.0761,6.358,43.2486C287.8192,180.3983,273.9379,187.9938,272.4199,183.2463z M199.7577,110.6741
		c1.2315-2.3946,3.3426-3.9853,6.4537-4.8635c8.6971-2.455,14.7252-2.7365,22.3568-3.0928
		c9.8736-0.4614,22.1621-1.0352,45.6978-6.307c5.1554-1.1542,9.5872-1.731,13.2786-1.731c4.5597,0,7.9895,0.8806,10.2487,2.6399
		c4.2475,3.3074,4.4264,9.8553,4.5988,16.1876c0.0629,2.2964,0.1234,4.5161,0.3657,6.6148
		c-5.1657-8.0653-16.023-23.225-53.2438-11.9396c-13.685,4.1498-20.5133,8.0093-22.8311,12.9054
		c-1.959,4.1375-0.3375,8.0583,1.2305,11.8504c2.238,5.412,4.352,10.5243-1.5903,18.0226
		c-3.9338,4.9646-6.9389,9.1506-9.1332,12.2067c-1.6626,2.3158-3.2563,4.5359-4.2945,5.7034
		c-0.6611-1.6368-1.5338-4.7985-2.4451-8.1005c-0.3067-1.1101-0.6378-2.3103-1-3.6022c-0.9673-3.4506-2.4055-7.4473-3.9283-11.6784
		C201.1805,133.4259,195.7774,118.4118,199.7577,110.6741z M198.6039,155.4341c4.1624-5.6078,4.1132,22.1469,17.4109,36.6339
		c13.2984,14.4847,27.0723,11.1453,58.6388,11.2841c14.9172,0.0674,11.4855,26.1375-2.1286,13.2521
		c-7.8575-7.4386-44.1271,1.3673-61.5251-8.2444C193.6035,198.7476,194.4397,161.0398,198.6039,155.4341z M204.5751,222.4656
		c-21.8335-2.6904-23.3053-25.6602-22.9247-35.4109c0.2978-7.6143-3.0814-11.2265-5.7971-14.1285
		c-2.3594-2.5224-3.9184-4.1885-3.4734-8.1119c0.8454-7.4543,9.0455-13.7221,15.0329-18.2992
		c1.4396-1.1006,2.8029-2.1428,3.9581-3.1151c0.7032,3.683-0.5709,14.4377-1.4451,21.8162
		c-0.9128,7.709-1.8574,15.6806-1.7028,21.0604c0.5773,20.0876,10.8974,30.3042,32.4767,32.1526
		c2.1621,0.1853,3.0893,0.7731,3.3327,1.0214C223.513,220.6841,217.9419,224.1139,204.5751,222.4656z M221.2121,289.6918
		c1.3591-3.4991,5.2974-5.2339,8.7966-3.8749c3.4991,1.3591,5.2339,5.2975,3.8749,8.7966s-5.2974,5.2339-8.7965,3.8748
		C221.5878,297.1292,219.853,293.1909,221.2121,289.6918z M250.1917,340.6813c2.9169,0.7671,5.5815,2.0036,7.961,3.5843
		c-14.5657,12.7118-22.8016,30.2997-21.5998,47.9286c-14.2065-3.8456-29.0013-35.1734-29.0013-35.1734
		S235.9591,336.9388,250.1917,340.6813z M263.5087,570.9985c-0.0632,0.2512-0.3094,0.4193-0.5703,0.3783
		c-0.2763-0.0435-0.4651-0.3027-0.4216-0.5791l0.007-0.044c1.3964-8.8766-0.9794-18.543-7.3204-24.5469
		c-3.1221-3.0194-7.0089-5.161-11.1526-6.5698c-4.1483-1.424-8.544-2.1763-12.9796-2.5229
		c-2.1666-0.1647-4.5815-0.2889-6.9186-0.4982c-2.3499-0.2115-4.6994-0.4967-7.0476-0.8494
		c-4.6924-0.7267-9.3804-1.7777-13.9763-3.3278c-4.5882-1.5515-9.0858-3.645-13.25-6.4364
		c-4.1709-2.7672-7.9455-6.361-10.8936-10.6295c-2.9498-4.2663-5.0064-9.2035-5.9832-14.3601
		c-1.0485-5.1895-0.7094-11.1082,1.5595-16.3281c2.205-5.2546,6.3609-9.7795,11.3505-12.4407
		c1.2416-0.6727,2.5209-1.2483,3.8197-1.744c1.3028-0.4708,2.6317-0.8589,3.9613-1.1367c1.3486-0.2961,2.6202-0.4966,4.0318-0.6329
		c1.4976-0.1452,3.0395-0.1231,4.5745,0.0919c3.0677,0.4203,6.0802,1.6208,8.5094,3.4365c2.4643,1.7814,4.3845,4.0829,5.7751,6.5727
		c1.4123,2.4868,2.2726,5.2059,2.6438,8.0101c0.298,2.808,0.1622,5.7742-1.0517,8.6211c-0.5997,1.4078-1.4571,2.7804-2.6166,3.8881
		l-0.4306,0.4117l-0.409,0.3354c-0.2727,0.2224-0.541,0.4458-0.8392,0.6447c-0.5724,0.4155-1.1858,0.7884-1.8221,1.1191
		c-2.5379,1.3367-5.629,1.8193-8.3956,1.0831c-2.756-0.7023-5.1879-2.469-6.478-4.8983c-0.6317-1.2066-1.0308-2.5368-1.0169-3.8595
		c-0.0017-1.317,0.3029-2.5864,0.8533-3.6868c0.1009-0.1977,0.325-0.3177,0.5539-0.2741c0.278,0.0528,0.4605,0.3211,0.4076,0.599
		c-0.3983,2.1765,0.2007,4.2721,1.4877,5.6875c1.2887,1.4191,3.1158,2.2202,4.901,2.2888c1.7923,0.0521,3.4827-0.533,4.8689-1.6027
		c0.3466-0.2693,0.6795-0.5603,0.9899-0.8856c0.1621-0.1494,0.3072-0.3286,0.455-0.5002l0.2221-0.2553l0.1438-0.2343
		c0.379-0.6095,0.6622-1.2891,0.8213-2.0548c0.6468-3.1024-0.5577-7.0429-2.6466-9.8382c-0.511-0.7178-1.1073-1.3513-1.7272-1.9169
		c-0.6091-0.5811-1.2768-1.0578-1.9601-1.4543c-1.3721-0.7943-2.8235-1.2169-4.3336-1.3025
		c-0.7575-0.0366-1.5327,0.0186-2.3255,0.1263c-0.8775,0.1269-1.8807,0.3288-2.7721,0.576
		c-1.8227,0.5013-3.5393,1.1626-5.1059,2.0246c-1.5483,0.8877-2.963,1.9306-4.1826,3.1715
		c-1.1897,1.2613-2.2533,2.6596-3.034,4.2458c-0.7906,1.5758-1.3733,3.2926-1.6792,5.0953
		c-0.1547,0.9008-0.2307,1.8214-0.2537,2.7493c-0.0147,0.4644,0.0022,0.9302,0.0188,1.3978
		c0.0348,0.4852,0.0622,0.9867,0.1245,1.4776c0.43,3.954,1.7249,7.8333,3.8487,11.269
		c4.2115,6.9479,11.5358,11.9724,19.6398,15.1708c4.0604,1.6311,8.3323,2.8937,12.7049,3.8426
		c2.1889,0.467,4.3984,0.8745,6.6265,1.2137c2.2402,0.3395,4.4231,0.5835,6.8397,0.9155c4.7176,0.697,9.4225,1.8522,13.8865,3.7459
		c4.4521,1.876,8.6675,4.5941,11.9393,8.25c3.2789,3.6451,5.4657,8.1826,6.391,12.8741
		C264.7646,561.6126,264.6505,566.3986,263.5087,570.9985z M263.1768,495.6304c-1.9708-5.0739,0.5449-10.7848,5.6189-12.7556
		c5.0739-1.9708,10.7849,0.5449,12.7556,5.6189c1.9708,5.0739-0.5449,10.7849-5.6189,12.7556
		C270.8585,503.2201,265.1476,500.7044,263.1768,495.6304z M355.6868,775.0779c-0.8524,2.7138-2.3712,5.3163-4.4463,7.3335
		c-2.0649,2.0311-4.5947,3.4535-7.1933,4.3174c-2.6075,0.8679-5.2954,1.2216-7.9354,1.1942
		c-5.2706-0.1069-10.4516-1.5925-14.8183-4.5999c-2.1618-1.5137-4.1083-3.4739-5.4163-5.8883
		c-1.3243-2.3973-1.8739-5.2505-1.5454-7.9198c0.1605-1.3546,0.4739-2.5452,0.8549-3.7983c0.398-1.2319,0.9431-2.4301,1.6245-3.5537
		c1.3506-2.2513,3.4316-4.1414,5.8859-5.1172c2.4486-0.9834,5.1469-1.1199,7.6279-0.5227c2.4625,0.6105,4.8324,1.9454,6.2704,4.1119
		c0.1391,0.2108,0.0956,0.4979-0.1071,0.6556c-0.213,0.1656-0.5198,0.1273-0.6854-0.0856l-0.0085-0.0109
		c-1.3827-1.7776-3.5718-2.8078-5.7762-3.1757c-2.2217-0.3584-4.5294-0.0403-6.4781,0.9246
		c-1.964,0.9465-3.5225,2.5586-4.5172,4.4895c-1.011,1.9069-1.5292,4.1782-1.6792,6.3331
		c-0.1089,2.1201,0.4485,4.1713,1.5642,5.9147c1.107,1.7509,2.7259,3.2006,4.5708,4.3144c3.7123,2.225,8.2454,3.1971,12.5573,2.996
		c4.3075-0.1869,8.5118-1.7233,11.0762-4.5934c1.2895-1.42,2.1656-3.1417,2.6476-5.0372c0.4754-1.9012,0.5557-3.9645,0.3583-6.0641
		c-0.1995-2.0945-0.6523-4.2869-1.3272-6.2336c-0.6797-1.9617-1.6156-3.7342-2.8352-5.1982
		c-2.3936-2.9617-6.0394-4.6603-10.2284-5.5085c-4.192-0.857-8.7867-0.9153-13.44-0.7803
		c-4.6674,0.1328-9.4404,0.5247-14.3223,0.6999c-2.4399,0.1031-4.9125,0.1471-7.4113,0.0939
		c-2.502-0.0326-5.0314-0.1837-7.5865-0.4817c-2.5418-0.2661-5.1662-0.7469-7.6725-1.3913
		c-2.5248-0.6422-5.0455-1.4183-7.5016-2.4799c-2.4596-1.0356-4.8766-2.3011-7.144-3.8881
		c-2.2681-1.5795-4.4044-3.4716-6.1875-5.7482c-1.7947-2.2569-3.216-4.9169-3.9786-7.8212
		c-0.7711-2.8963-0.8083-6.0441,0.0409-9.0062c0.8474-2.9344,2.6384-5.7857,5.4164-7.4792
		c1.3609-0.8541,2.9262-1.3932,4.4893-1.5581c0.3904-0.0479,0.7804-0.0586,1.1674-0.0668c0.3896,0.0082,0.7815,0.0215,1.0835,0.0593
		c0.6487,0.0505,1.2999,0.1435,1.9463,0.2509c2.5768,0.4581,5.196,1.2774,7.4109,2.8408c2.2007,1.5518,3.9481,3.7998,4.3573,6.467
		c0.0314,0.2057-0.0726,0.4169-0.2699,0.5116c-0.2419,0.1161-0.5321,0.0143-0.6483-0.2277l-0.036-0.075
		c-0.4573-0.9524-1.1959-1.8719-2.0249-2.5579c-0.8242-0.7116-1.7662-1.2527-2.7588-1.6501
		c-2.0013-0.7728-4.1731-1.0501-6.3721-0.9662c-0.5519,0.0306-1.0996,0.0553-1.6522,0.1039
		c-0.2985,0.0153-0.5065,0.0545-0.7168,0.0853c-0.2106,0.0479-0.4194,0.0889-0.6189,0.1553
		c-0.8035,0.2435-1.5085,0.6563-2.0964,1.2064c-1.1725,1.094-1.9327,2.6851-2.1557,4.4073c-0.2387,1.728,0.087,3.5363,0.7409,5.2173
		c0.6763,1.6857,1.7465,3.2446,3.0802,4.6263c2.6874,2.7659,6.3889,4.781,10.408,6.1852c2.0143,0.6984,4.119,1.2635,6.2677,1.7215
		c1.0852,0.2233,2.1577,0.4224,3.239,0.5688c1.0818,0.1624,2.1789,0.3137,3.2891,0.4266c2.2196,0.2279,4.4888,0.354,6.787,0.4715
		c2.3022,0.0855,4.6338,0.1412,6.9964,0.1859c4.7233,0.0699,9.5526,0.0989,14.4921,0.2904
		c4.9361,0.2226,10.0093,0.5782,15.1946,1.8863c2.5813,0.6762,5.1992,1.624,7.6665,3.059c2.4668,1.4185,4.7381,3.3885,6.4637,5.7186
		c1.7462,2.3231,2.934,4.9427,3.7012,7.5549c0.7647,2.6367,1.1661,5.2036,1.3008,7.899
		C356.8005,769.5551,356.5347,772.3568,355.6868,775.0779z M369.1935,770.4534c-4.7568,0-8.6129-3.8561-8.6129-8.613
		c0-4.7568,3.8562-8.613,8.6129-8.613s8.6129,3.8562,8.6129,8.613C377.8065,766.5973,373.9503,770.4534,369.1935,770.4534z
		 M393.5362,757.7843c-6.5455,0-11.8517-5.3062-11.8517-11.8517s5.3062-11.8517,11.8517-11.8517
		c6.5455,0,11.8517,5.3062,11.8517,11.8517S400.0817,757.7843,393.5362,757.7843z M430.7485,762.4764
		c0,0-29.6249-20.8583-20.6013-36.6619c2.9253-5.3734,14.8074-9.79,20.6013,0c5.7944-9.79,17.6765-5.3734,20.6018,0
		C460.3735,741.6181,430.7485,762.4764,430.7485,762.4764z M468.313,757.7843c-6.5457,0-11.8519-5.3062-11.8519-11.8517
		s5.3062-11.8517,11.8519-11.8517c6.5454,0,11.8516,5.3062,11.8516,11.8517S474.8583,757.7843,468.313,757.7843z M495.1753,770.4534
		c-4.7568,0-8.613-3.8561-8.613-8.613c0-4.7568,3.8562-8.613,8.613-8.613c4.7568,0,8.613,3.8562,8.613,8.613
		C503.7883,766.5973,499.9321,770.4534,495.1753,770.4534z M501.0917,700.3436c-3.2261,4.3798-7.2927,6.9706-12.1244,7.7149
		c-0.9436,0.1447-1.8881,0.2121-2.8287,0.2121c-8.0479,0-15.753-4.9279-19.7472-7.9745c-4.1925,4.2519-9.0757,6.6633-14.5567,7.1797
		c-8.9092,0.8345-16.9701-3.6612-21.0148-6.4423c-4.3332,4.0904-9.27,6.2867-14.7113,6.5405
		c-8.7606,0.4034-16.4041-4.4531-20.0971-7.3076c-13.623,9.498-27.247,5.694-34.1145,1.4213
		c-23.3945,9.4216-36.0512-4.919-40.1555-10.9916c-7.0707,1.4302-12.7647,0.4698-16.9612-2.8713
		c-3.8178-3.0388-5.4442-7.3759-6.1331-10.7339c-3.2152,0.5997-6.5246,0.0714-9.6476-1.6016
		c-5.141-2.7514-8.826-8.2274-9.1709-13.624c-0.0149-0.2341-0.0039-0.4636,0.0253-0.6878
		c-0.1506-0.4968-0.2059-1.0297-0.1194-1.5769c3.5505-22.469,1.2991-39.3796,1.0566-41.0631
		c-1.1629-1.2373-1.3094-3.16-0.2518-4.5594c0.7433-0.9841,7.5078-9.6119,16.1593-9.7883c2.0963-0.0258,4.8833,0.4232,7.7645,2.4302
		c2.3708-3.5135,6.4829-8.1609,12.2612-9.5297c4.4868-1.0585,9.046-0.0258,13.5864,3.0834
		c4.2678-2.3262,14.0234-6.6802,23.5065-4.0914c5.2391,1.4292,9.5396,4.692,12.8252,9.719
		c4.0656-2.6959,11.2017-6.363,18.7521-5.2906c4.8119,0.6849,8.9875,3.1221,12.4545,7.26
		c4.0587-3.1409,11.6368-7.8318,20.0703-7.4196c5.2531,0.2646,9.9857,2.4153,14.1107,6.4076
		c4.2123-3.3322,12.6418-8.7803,21.5283-7.6188c5.3322,0.6968,9.9033,3.5731,13.628,8.5634
		c7.3948-4.1082,19.6312-7.5703,29.5187-0.4767c3.2608-3.5403,9.5515-9.0847,17.7382-10.1917
		c5.7891-0.782,11.4336,0.7463,16.8134,4.5493c3.8644-2.1676,12.0045-5.8387,19.2665-3.2579
		c3.9387,1.4005,6.9557,4.3114,9.0043,8.6783c2.7346-1.1824,6.5861-2.2073,10.6893-1.2984c4.799,1.0625,8.711,4.4006,11.6288,9.9192
		c0.614,1.1605,0.5072,2.4988-0.1415,3.5371c0.0228,0.2712,0.0233,0.547-0.019,0.8278c-0.0317,0.2101-3.128,21.3022,1.9902,40.4082
		c0.0693,0.2587,0.1023,0.5176,0.113,0.7746c0.0002,0.0002,0.0005,0.0002,0.001,0.0004c1.7374,0.9099,2.4094,3.0566,1.5005,4.7951
		c-3.0804,5.8863-7.1658,9.5465-12.1432,10.8796c-3.7603,1.006-7.2382,0.4232-9.7279-0.3776
		c-5.4016,10.9361-16.2594,14.3832-23.4411,14.8005c-1.899,6.0458-5.3868,10.2255-10.3959,12.4446
		C519.7159,708.0872,506.8611,703.09,501.0917,700.3436z M592.2624,714.7994c0.6464-0.1073,1.2976-0.2003,1.9464-0.2508
		c0.3019-0.0378,0.6938-0.0511,1.0834-0.0593c0.3872,0.0082,0.7769,0.0189,1.1674,0.0668c1.563,0.1649,3.1285,0.704,4.4893,1.5581
		c2.7781,1.6934,4.5691,4.5447,5.4165,7.4792c0.8492,2.962,0.812,6.1099,0.0409,9.006c-0.7627,2.9044-2.184,5.5643-3.9786,7.8213
		c-1.7831,2.2766-3.9194,4.1687-6.1876,5.7482c-2.2673,1.5869-4.6844,2.8524-7.144,3.8881
		c-2.4562,1.0616-4.9767,1.8377-7.5016,2.4799c-2.5063,0.6445-5.1308,1.1253-7.6725,1.3914
		c-2.5551,0.2979-5.0845,0.4491-7.5866,0.4816c-2.4988,0.0532-4.9714,0.0092-7.4113-0.094
		c-4.8819-0.1751-9.6549-0.5671-14.3224-0.6998c-4.6533-0.1351-9.2479-0.0767-13.4399,0.7804
		c-4.189,0.8481-7.8349,2.5468-10.2286,5.5084c-1.2197,1.4641-2.1556,3.2366-2.8352,5.1983
		c-0.6749,1.9467-1.1277,4.1392-1.3271,6.2336c-0.1974,2.0997-0.1172,4.163,0.3583,6.0642c0.4819,1.8954,1.3581,3.6171,2.6476,5.037
		c2.5644,2.8702,6.7687,4.4066,11.0762,4.5935c4.3119,0.2012,8.845-0.7709,12.5573-2.996c1.8448-1.1138,3.4639-2.5634,4.5707-4.3145
		c1.1157-1.7433,1.673-3.7944,1.5642-5.9146c-0.1499-2.1548-0.6682-4.4262-1.6792-6.3331c-0.9949-1.9309-2.5533-3.543-4.5172-4.4895
		c-1.9487-0.965-4.2565-1.283-6.4781-0.9246c-2.2045,0.3679-4.3937,1.3981-5.7763,3.1757l-0.0084,0.0109
		c-0.1656,0.213-0.4725,0.2513-0.6854,0.0857c-0.2028-0.1577-0.2463-0.4449-0.107-0.6556c1.4379-2.1664,3.8076-3.5013,6.2702-4.1118
		c2.4809-0.5972,5.1793-0.4608,7.6278,0.5226c2.4544,0.9758,4.5354,2.866,5.886,5.1172c0.6813,1.1236,1.2264,2.3218,1.6245,3.5537
		c0.3809,1.2532,0.6943,2.4438,0.8549,3.7983c0.3286,2.6693-0.2211,5.5225-1.5454,7.9199c-1.308,2.4144-3.2545,4.3746-5.4163,5.8882
		c-4.3666,3.0074-9.5477,4.4932-14.8183,4.6c-2.6399,0.0273-5.3279-0.3263-7.9353-1.1942
		c-2.5986-0.8638-5.1285-2.2863-7.1934-4.3173c-2.0753-2.0172-3.5939-4.6198-4.4463-7.3336
		c-0.8479-2.7212-1.1138-5.5229-0.9852-8.2077c0.1347-2.6954,0.5362-5.2624,1.3008-7.899c0.7671-2.6121,1.955-5.2319,3.7013-7.5548
		c1.7254-2.3302,3.9968-4.3002,6.4636-5.7188c2.4673-1.4348,5.0852-2.3827,7.6664-3.0588
		c5.1854-1.3081,10.2585-1.6637,15.1947-1.8864c4.9395-0.1915,9.7688-0.2205,14.492-0.2903
		c2.3626-0.0447,4.6942-0.1004,6.9965-0.1859c2.2983-0.1174,4.5674-0.2435,6.7871-0.4714c1.11-0.113,2.2073-0.2643,3.2891-0.4267
		c1.0811-0.1465,2.1537-0.3455,3.2389-0.5688c2.1486-0.4579,4.2534-1.0231,6.2678-1.7215c4.019-1.4042,7.7203-3.4192,10.4079-6.1852
		c1.3337-1.3817,2.404-2.9406,3.0803-4.6263c0.6539-1.681,0.9795-3.4893,0.7408-5.2172c-0.223-1.7223-0.9832-3.3133-2.1557-4.4073
		c-0.5878-0.5502-1.2929-0.9628-2.0965-1.2064c-0.1995-0.0664-0.4082-0.1074-0.6187-0.1553
		c-0.2105-0.0308-0.4185-0.0699-0.717-0.0853c-0.5526-0.0486-1.1003-0.0732-1.6522-0.1039
		c-2.1989-0.084-4.3707,0.1934-6.3721,0.9662c-0.9926,0.3974-1.9346,0.9385-2.7588,1.65c-0.8291,0.686-1.5674,1.6056-2.0248,2.558
		l-0.0359,0.075c-0.1162,0.2419-0.4064,0.3438-0.6483,0.2277c-0.1973-0.0948-0.3012-0.306-0.27-0.5117
		c0.4093-2.6672,2.1567-4.9153,4.3574-6.467C587.0664,716.0769,589.6855,715.2576,592.2624,714.7994z M597.8184,502.228
		c-5.074-1.9707-7.5896-7.6816-5.6188-12.7556c1.9707-5.074,7.6816-7.5896,12.7557-5.6189
		c5.0739,1.9708,7.5895,7.6816,5.6188,12.7556C608.6033,501.6831,602.8925,504.1988,597.8184,502.228z M673.5203,468.7304
		c1.4116,0.1364,2.6832,0.3368,4.0317,0.6329c1.3296,0.2778,2.6584,0.6659,3.9612,1.1367c1.2989,0.4956,2.5782,1.0712,3.8198,1.744
		c4.9896,2.6612,9.1453,7.1861,11.3503,12.4407c2.2689,5.2199,2.6082,11.1386,1.5596,16.3281
		c-0.9767,5.1566-3.0334,10.0938-5.9832,14.3601c-2.9481,4.2685-6.7225,7.8622-10.8934,10.6295
		c-4.1642,2.7914-8.6619,4.8849-13.2501,6.4364c-4.5958,1.5501-9.2839,2.6011-13.9764,3.3278
		c-2.3481,0.3527-4.6977,0.6379-7.0475,0.8494c-2.3372,0.2092-4.7521,0.3334-6.9187,0.4982
		c-4.4355,0.3466-8.8312,1.0989-12.9796,2.5229c-4.1436,1.4088-8.0305,3.5504-11.1526,6.5698
		c-6.341,6.004-8.7167,15.6703-7.3204,24.5469l0.007,0.044c0.0435,0.2764-0.1453,0.5356-0.4216,0.5791
		c-0.2609,0.041-0.5071-0.1271-0.5703-0.3783c-1.1418-4.6-1.2559-9.3859-0.3629-14.0961c0.9252-4.6915,3.1121-9.2289,6.391-12.8741
		c3.2717-3.6559,7.4871-6.374,11.9393-8.25c4.4639-1.8937,9.1688-3.049,13.8865-3.7459c2.4164-0.332,4.5994-0.576,6.8396-0.9155
		c2.2282-0.3392,4.4377-0.7467,6.6265-1.2137c4.3726-0.9489,8.6443-2.2115,12.7048-3.8426
		c8.1039-3.1984,15.4283-8.2229,19.6399-15.1708c2.1237-3.4357,3.4186-7.3151,3.8486-11.269
		c0.0624-0.4908,0.0897-0.9924,0.1246-1.4776c0.0166-0.4676,0.0334-0.9334,0.0188-1.3978c-0.023-0.9279-0.0991-1.8486-0.2537-2.7493
		c-0.306-1.8027-0.8888-3.5195-1.6792-5.0953c-0.7808-1.5862-1.8442-2.9846-3.0341-4.2458
		c-1.2195-1.241-2.6342-2.2838-4.1826-3.1715c-1.5665-0.862-3.2831-1.5233-5.1058-2.0246c-0.8915-0.2472-1.8945-0.4492-2.7722-0.576
		c-0.7929-0.1077-1.568-0.1629-2.3254-0.1263c-1.5102,0.0856-2.9615,0.5082-4.3337,1.3025c-0.6832,0.3965-1.3509,0.8732-1.96,1.4543
		c-0.6199,0.5656-1.2161,1.1991-1.7273,1.9169c-2.0888,2.7953-3.2934,6.7357-2.6465,9.8382
		c0.1591,0.7657,0.4423,1.4453,0.8213,2.0548l0.1438,0.2343l0.222,0.2553c0.1479,0.1716,0.2928,0.3507,0.455,0.5002
		c0.3104,0.3253,0.6434,0.6164,0.9901,0.8856c1.386,1.0697,3.0764,1.6548,4.8689,1.6027c1.785-0.0686,3.6121-0.8697,4.9009-2.2888
		c1.2869-1.4154,1.8861-3.511,1.4877-5.6875c-0.0528-0.2779,0.1296-0.5462,0.4076-0.599c0.2289-0.0435,0.4532,0.0764,0.554,0.2741
		c0.5504,1.1004,0.8551,2.3698,0.8534,3.6868c0.0139,1.3227-0.3853,2.6529-1.0169,3.8595c-1.2902,2.4293-3.7222,4.196-6.478,4.8983
		c-2.7667,0.7362-5.8578,0.2536-8.3956-1.0831c-0.6363-0.3307-1.2498-0.7036-1.8221-1.1191
		c-0.2982-0.1989-0.5665-0.4222-0.8392-0.6447l-0.409-0.3354l-0.4307-0.4117c-1.1595-1.1077-2.0168-2.4803-2.6165-3.8881
		c-1.2139-2.8469-1.3497-5.8131-1.0518-8.6211c0.3713-2.8042,1.2316-5.5233,2.6439-8.0101
		c1.3907-2.4897,3.3109-4.7912,5.7751-6.5727c2.4291-1.8156,5.4417-3.0162,8.5095-3.4365
		C670.4808,468.6073,672.0227,468.5853,673.5203,468.7304z M637.1981,394.2519c1.2017-17.629-7.0341-35.2169-21.5999-47.9287
		c2.3796-1.5807,5.0441-2.8171,7.9609-3.5842c14.2326-3.7426,42.6403,16.3394,42.6403,16.3394S651.4045,390.4063,637.1981,394.2519z
		 M647.6624,292.4922c1.3591,3.4991-0.3758,7.4375-3.8749,8.7966c-3.499,1.3591-7.4375-0.3758-8.7966-3.8749
		c-1.3591-3.4991,0.3759-7.4375,3.8751-8.7965C642.3649,287.2583,646.3033,288.9932,647.6624,292.4922z"/>
	<path d="M709.841,176.2091c-1.1923,1.3041-3.334,2.921-2.522,4.9105c1.8551,3.3463,3.887,6.6596,5.0067,10.3317
		c0.8046,3.809,1.0507,7.709,1.634,11.5524c-0.1097,1.0148,0.9072,1.159,1.636,1.3305c9.3764,2.0885,19.8551-0.1011,27.1649-6.3397
		c7.769-6.4686,11.16-16.1866,13.9728-25.4569l-0.0696-0.6679c-0.6169-1.653-2.3282,0.2711-3.3879,0.5706
		c-10.0682,3.537-19.9009-2.5556-29.9711-2.6651c-0.3275,0.0023-0.6514,0.0176-0.9718,0.0451l0.0013-0.0032
		C717.5276,170.2295,713.4977,173.3619,709.841,176.2091z"/>
</g>
</svg>
